<?xml version="1.0" encoding="utf-8"?>
<!-- Generator: Adobe Illustrator 25.1.0, SVG Export Plug-In . SVG Version: 6.00 Build 0)  -->
<svg version="1.1" xmlns="http://www.w3.org/2000/svg" xmlns:xlink="http://www.w3.org/1999/xlink" x="0px" y="0px"
	 viewBox="0 0 792 792" style="enable-background:new 0 0 792 792;" xml:space="preserve">
<style type="text/css">
	.st0{fill:#FFFFFF;}
	.st1{fill:#EF3F37;}
	.st2{fill:#F5EB28;}
	.st3{fill:#1999D6;}
	.st4{fill:none;stroke:#000000;stroke-width:8;stroke-miterlimit:10;}
	.st5{fill:none;stroke:#000000;stroke-width:5;stroke-miterlimit:10;}
	.st6{fill:none;stroke:#000000;stroke-width:6;stroke-miterlimit:10;}
	.st7{fill:none;stroke:#000000;stroke-miterlimit:10;}
	.st8{fill:none;stroke:#000000;stroke-width:0.5;stroke-miterlimit:10;}
	.st9{fill:none;stroke:#000000;stroke-width:4;stroke-miterlimit:10;}
	.st10{fill:none;stroke:#000000;stroke-width:3;stroke-miterlimit:10;}
</style>
<g id="Guide">
</g>
<g id="Layer_5">
</g>
<g id="Logo">
</g>
<g id="Linework">
	<g id="XMLID_18_">
		<g>
			<path class="st0" d="M513.15,686.7c0,1.29-0.16,2.48-0.48,3.56c-0.31,1.09-0.9,2.03-1.74,2.83c-0.84,0.8-1.98,1.43-3.42,1.88
				c-1.44,0.44-3.27,0.67-5.48,0.67h-4.11v-17.38c0.75-0.04,2.31-0.06,4.69-0.06c3.49,0,6.11,0.71,7.89,2.13
				C512.27,681.74,513.15,683.87,513.15,686.7z"/>
			<polygon class="st0" points="288.61,682.73 295.37,700.33 280.17,700.33 			"/>
			<path class="st0" d="M231.18,701.37c0.51,1.08,0.76,2.36,0.76,3.86c0,2.13-0.48,3.8-1.43,5.02c-0.96,1.22-2.3,2.07-4.03,2.56
				s-3.94,0.73-6.61,0.73c-2.16,0-4.08-0.03-5.74-0.09v-16.56H220c2.11,0,3.87,0.15,5.27,0.45c1.41,0.3,2.62,0.78,3.63,1.44
				C229.92,699.43,230.68,700.3,231.18,701.37z"/>
			<path class="st0" d="M231.27,685.14c0,1.96-0.42,3.49-1.25,4.61c-0.83,1.11-2.05,1.97-3.65,2.58c-1.6,0.6-3.81,0.9-6.62,0.9
				h-5.62v-14.87c1.86-0.11,3.77-0.16,5.74-0.16c2.48,0,4.55,0.22,6.21,0.66c1.65,0.43,2.93,1.16,3.84,2.17
				C230.82,682.04,231.27,683.41,231.27,685.14z"/>
			<path class="st0" d="M647.82,635.53c32.46,0,58.78,26.32,58.78,58.78c0,16.23-6.58,30.93-17.22,41.56
				c-10.63,10.64-25.33,17.22-41.56,17.22H144.18c-32.46,0-58.77-26.32-58.77-58.78c0-16.23,6.58-30.93,17.21-41.56
				c10.64-10.64,25.33-17.22,41.56-17.22h0.42h82.48c1.42,2.69,3.06,5.35,5.13,8.2c4.91,6.75,10.78,14.81,21.71,19.15
				c2.92,1.16,16.59,6.58,29.87-0.26c10.53-5.42,14.71-15.4,16.59-19.91c1.05-2.52,1.77-4.88,2.27-7.18h186.24
				c0.5,2.3,1.22,4.66,2.27,7.18c1.89,4.51,6.07,14.49,16.6,19.91c13.28,6.84,26.95,1.42,29.87,0.26
				c10.93-4.34,16.79-12.4,21.7-19.15c2.08-2.85,3.71-5.51,5.13-8.2h82.72H647.82z M648.22,719.12l27.35-24.73l-27.35-24.72
				l-23.53,24.65L648.22,719.12z M598.15,676.61v-2.07h-17.38v2.07c1.07,0.04,1.9,0.27,2.49,0.7c0.59,0.43,0.89,1.02,0.89,1.77
				s-0.15,1.5-0.45,2.26c-0.31,0.76-0.85,1.71-1.63,2.86l-7.93,11.47l-7.33-11.75c-0.81-1.25-1.39-2.25-1.75-3
				c-0.36-0.75-0.54-1.4-0.54-1.94c0-1.37,1.11-2.16,3.33-2.37v-2.07h-23.1v2.07c0.72,0.06,1.29,0.16,1.69,0.31
				c0.4,0.15,0.85,0.41,1.32,0.78c0.48,0.38,1.05,0.99,1.71,1.84c0.58,0.73,1.38,1.86,2.39,3.38l11.75,17.87v8.57
				c0,1.02-0.06,1.87-0.16,2.54c-0.1,0.68-0.32,1.24-0.67,1.68c-0.35,0.43-0.87,0.77-1.58,1c-0.71,0.22-1.66,0.41-2.84,0.56v2.06
				h23.93v-2.06c-1.02-0.11-1.82-0.25-2.41-0.42c-0.59-0.18-1.05-0.38-1.39-0.6c-0.33-0.22-0.61-0.5-0.84-0.86
				c-0.23-0.35-0.39-0.81-0.48-1.39c-0.08-0.57-0.13-1.41-0.13-2.51v-8.57l12.44-16.87c1.1-1.5,2.07-2.72,2.91-3.66
				c0.83-0.93,1.56-1.64,2.16-2.11c0.61-0.47,1.17-0.81,1.67-1.03C596.73,676.9,597.37,676.73,598.15,676.61z M532.99,717.2v-2.06
				c-1.58-0.21-2.94-0.79-4.09-1.74c-1.15-0.94-2.3-2.37-3.46-4.26l-2.62-4.25c-1.08-1.71-2.29-3.12-3.63-4.24
				c-1.34-1.11-3.04-2-5.08-2.67v-0.31c2.71-0.85,4.87-1.77,6.49-2.74c1.62-0.96,2.91-2.18,3.86-3.64c0.96-1.45,1.43-3.2,1.43-5.25
				c0-1.56-0.27-2.93-0.81-4.11c-0.53-1.17-1.3-2.2-2.3-3.09c-0.99-0.88-2.21-1.62-3.65-2.2c-1.72-0.71-3.72-1.24-6-1.58
				c-2.28-0.34-5.06-0.52-8.32-0.52h-24.2v2.07c1.05,0.21,1.88,0.44,2.47,0.7c0.6,0.26,1.04,0.6,1.33,1.02
				c0.29,0.41,0.47,0.95,0.54,1.62s0.1,1.49,0.1,2.47v26.94c0,1-0.04,1.82-0.12,2.48c-0.08,0.66-0.27,1.2-0.56,1.63
				c-0.29,0.42-0.74,0.76-1.33,1c-0.6,0.24-1.4,0.46-2.43,0.67v2.06h21.79v-2.06c-1.49-0.29-2.52-0.63-3.07-1
				c-0.55-0.38-0.93-0.88-1.12-1.5c-0.19-0.63-0.29-1.72-0.29-3.28v-10.07h2.41c1.52,0,2.65,0.13,3.38,0.38
				c0.73,0.25,1.44,0.71,2.14,1.37c0.69,0.67,1.52,1.8,2.49,3.38l3.23,5.34c2.02,3.29,3.84,5.77,5.44,7.44H532.99z M460.35,717.2
				l0.89-11.41h-6.37c-0.55,1.32-1.06,2.35-1.53,3.1c-0.46,0.75-0.9,1.35-1.32,1.81c-0.42,0.46-0.9,0.89-1.44,1.28
				c-0.54,0.4-1.11,0.71-1.7,0.94c-0.59,0.23-1.25,0.39-1.99,0.48c-0.75,0.1-1.66,0.14-2.74,0.14h-10.08v-16.68h6.13
				c1.45,0,2.54,0.13,3.27,0.4c0.73,0.27,1.36,0.73,1.88,1.36c0.53,0.64,1.01,1.56,1.44,2.77h5.25V688.7h-5.25
				c-0.46,1.27-0.95,2.21-1.46,2.81c-0.51,0.61-1.15,1.04-1.93,1.3c-0.77,0.26-1.84,0.39-3.2,0.39h-6.13v-15h10.12
				c2.39,0,4.07,0.2,5.06,0.61c0.99,0.41,1.85,0.96,2.56,1.66c0.71,0.69,1.58,2.03,2.6,4.01h6.36v-9.94H414.7v2.07
				c1.18,0.21,2.1,0.44,2.77,0.7c0.66,0.26,1.16,0.6,1.48,1.02c0.33,0.41,0.53,0.95,0.61,1.62c0.07,0.67,0.11,1.49,0.11,2.47v26.94
				c0,1-0.04,1.82-0.14,2.48c-0.09,0.66-0.3,1.2-0.62,1.63c-0.33,0.42-0.82,0.76-1.49,1c-0.66,0.24-1.57,0.46-2.72,0.67v2.06H460.35
				z M396,717.2v-2.03c-0.88-0.19-1.58-0.39-2.12-0.61c-0.53-0.22-1.07-0.54-1.62-0.95c-0.55-0.42-1.18-1-1.91-1.74
				s-1.62-1.73-2.69-2.98l-14.35-16.75l12.33-10.5c1.48-1.27,2.7-2.24,3.66-2.89c0.96-0.66,1.81-1.13,2.55-1.42
				c0.74-0.3,1.63-0.51,2.67-0.66v-2.13h-21v2.07c1.17,0.02,2.09,0.24,2.73,0.65c0.64,0.42,0.97,0.99,0.97,1.72
				c0,0.69-0.19,1.38-0.56,2.08s-1.05,1.58-2.05,2.66c-1.01,1.07-2.62,2.6-4.85,4.59c-2.24,1.99-3.75,3.26-4.53,3.8
				c-0.78,0.54-1.54,0.91-2.28,1.12c-0.74,0.21-1.74,0.31-3,0.31h-0.86v-11.12c0-1.19,0.05-2.07,0.16-2.66
				c0.11-0.58,0.3-1.06,0.56-1.43c0.26-0.38,0.65-0.7,1.19-0.97c0.53-0.27,1.38-0.52,2.53-0.75v-2.07h-21.58v2.07
				c1.04,0.21,1.85,0.44,2.44,0.7s1.03,0.6,1.32,1.02c0.29,0.41,0.46,0.95,0.53,1.62c0.07,0.67,0.1,1.49,0.1,2.47v26.94
				c0,1-0.04,1.82-0.12,2.48c-0.08,0.66-0.27,1.2-0.55,1.63c-0.29,0.42-0.73,0.76-1.32,1c-0.59,0.24-1.39,0.46-2.4,0.67v2.06h21.58
				v-2.06c-0.8-0.15-1.47-0.32-2.02-0.52s-0.98-0.43-1.29-0.7c-0.32-0.27-0.56-0.6-0.72-1c-0.17-0.4-0.28-0.91-0.33-1.53
				c-0.06-0.63-0.08-1.3-0.08-2.03v-12.41h0.82c0.99,0,1.76,0.11,2.32,0.33c0.56,0.22,1.13,0.58,1.69,1.08s1.22,1.19,1.99,2.09
				l6.29,7.38c1.43,1.66,2.37,2.81,2.84,3.43c0.46,0.63,0.76,1.1,0.88,1.42c0.12,0.33,0.19,0.66,0.19,0.99c0,0.4-0.17,0.71-0.5,0.95
				c-0.33,0.24-0.96,0.41-1.89,0.52v2.06H396z M318,717.2v-2.06c-1.21-0.19-2.15-0.49-2.83-0.89c-0.67-0.41-1.22-0.94-1.64-1.6
				c-0.43-0.65-0.95-1.76-1.57-3.32l-13.93-35h-11.28l-17.61,34.71c-0.73,1.48-1.42,2.62-2.06,3.41c-0.65,0.79-1.37,1.42-2.16,1.88
				c-0.79,0.45-1.7,0.72-2.74,0.81v2.06h18.03v-2.06c-2.93-0.15-4.39-1.24-4.39-3.28c0-0.88,0.12-1.71,0.38-2.49
				c0.25-0.78,0.57-1.59,0.97-2.42l1.39-2.97h18.03l1.14,3.06c0.45,1.21,0.78,2.21,0.97,3c0.2,0.8,0.3,1.51,0.3,2.16
				c0,0.88-0.35,1.55-1.06,2.03c-0.7,0.48-1.78,0.78-3.25,0.91v2.06H318z M244.98,705.11c0-2.44-1.03-4.53-3.1-6.27
				c-2.07-1.74-5.07-3.07-9.01-3.98v-0.28c7.65-2.36,11.48-5.89,11.48-10.6c0-1.75-0.49-3.26-1.48-4.53
				c-0.98-1.27-2.35-2.25-4.09-2.94c-1.94-0.77-4.24-1.31-6.88-1.62c-2-0.23-4.57-0.35-7.72-0.35h-27.64v2.07
				c1.06,0.21,1.9,0.44,2.51,0.7c0.6,0.26,1.05,0.6,1.35,1.02c0.29,0.41,0.48,0.95,0.55,1.62c0.07,0.67,0.1,1.49,0.1,2.47v26.94
				c0,1-0.04,1.82-0.13,2.48c-0.08,0.66-0.27,1.2-0.57,1.63c-0.29,0.42-0.74,0.76-1.35,1c-0.6,0.24-1.42,0.46-2.46,0.67v2.06h25.99
				c4.02,0,7.34-0.23,9.94-0.69c2.6-0.46,4.87-1.18,6.79-2.17c1.93-0.99,3.36-2.25,4.31-3.8C244.51,709,244.98,707.19,244.98,705.11
				z M169.15,694.21l-23.77-24.56l-27.11,25l27.6,24.45L169.15,694.21z"/>
			<polygon class="st1" points="675.57,694.39 648.22,719.12 624.69,694.32 648.22,669.67 			"/>
			<path class="st0" d="M703.82,341.59c0,98.72-46.39,186.6-118.56,243.04c4.55-11.77,7.31-19.8,10.58-31.29
				c3.15-11.06,4.06-15.79,4.09-21.7c0.06-13.01-4.17-22.78-8.68-33.19c-1.54-3.55-6.6-14.75-15.83-25.28
				c-2.59-2.94-5.19-5.48-8.94-7.66c-1.45-0.83-6-3.41-12.15-4.14l0.03-0.2c28.02-33.95,43.22-75.65,43.22-119.58
				c0-51.66-21.02-100.22-59.2-136.75c-38.17-36.53-88.92-56.65-142.91-56.65s-104.74,20.12-142.91,56.65
				c-38.18,36.53-59.2,85.09-59.2,136.75c0,44.04,15.28,85.84,43.44,119.84c-5.94,0.79-10.32,3.27-11.73,4.08
				c-3.75,2.18-6.35,4.72-8.94,7.66c-9.24,10.53-14.29,21.73-15.83,25.28c-4.51,10.41-8.74,20.18-8.68,33.19
				c0.03,5.91,0.93,10.64,4.08,21.7c3.34,11.71,6.14,19.83,10.85,31.96h-0.01C133.88,528.89,87.12,440.7,87.12,341.59
				c0-170.29,138.06-308.34,308.35-308.34S703.82,171.3,703.82,341.59z"/>
			<path class="st0" d="M647.18,635.53h-82.72c2.35-4.42,4.14-8.93,6.36-14.53c4.46-11.23,7.98-19.97,10.86-27.24
				c21.76,3.13,37.86,7.55,45.81,11.75c3.13,1.66,9.34,4.94,14.04,11.87c3.08,4.54,4.32,8.9,4.85,11.24
				C646.94,631.09,647.16,633.42,647.18,635.53z"/>
			<path class="st2" d="M591.25,498.45c4.51,10.41,8.74,20.18,8.68,33.19c-0.03,5.91-0.94,10.64-4.09,21.7
				c-3.27,11.49-6.03,19.52-10.58,31.29c-1.09,2.8-2.27,5.81-3.58,9.13c-2.88,7.27-6.4,16.01-10.86,27.24
				c-2.22,5.6-4.01,10.11-6.36,14.53c-1.42,2.69-3.05,5.35-5.13,8.2c-4.91,6.75-10.77,14.81-21.7,19.15
				c-2.92,1.16-16.59,6.58-29.87-0.26c-10.53-5.42-14.71-15.4-16.6-19.91c-1.05-2.52-1.77-4.88-2.27-7.18
				c-0.91-4.17-1.11-8.14-1.3-12.48c-0.5-11.24,1.22-16.09,5.36-41.88c0.66-4.09,1.31-8.18,1.97-12.68c0.45-3.03,0.9-6.25,1.35-9.78
				c1.96-15.33,1.59-17.73,2.81-27.32c1.41-11.1,2.44-19.24,4.12-26.08c1.48-5.98,3.45-10.96,6.6-16.05
				c7.17-11.57,16.5-17.79,21.56-20.9c0.32-0.19,0.62-0.38,0.91-0.55c3.98-2.4,7.94-4.75,12.67-5.9c2-0.5,4.14-0.77,6.48-0.74
				c1,0.01,1.97,0.08,2.91,0.2c6.15,0.73,10.7,3.31,12.15,4.14c3.75,2.18,6.35,4.72,8.94,7.66
				C584.65,483.7,589.71,494.9,591.25,498.45z M565.01,601.36c0.83-2.55-0.16-5.35-2.39-6.83c-1.94-1.3-3.66-2.25-5.06-2.95
				c-5.77-2.9-10.97-4.01-17.25-5.34c-11.22-2.39-20.66-2.7-27.13-2.55c-0.35,0-0.86,0.01-1.45,0.12c-1.83,0.32-3.05,1.23-3.86,1.85
				c-0.9,0.69-1.64,1.45-2.23,2.2c-0.24,0.3-0.02,0.74,0.36,0.73c3.19-0.11,6.42-0.12,9.66-0.03c4.8,0.15,8.86,0.65,16.98,1.66
				c0,0,14.82,1.85,25.34,7.86c1.75,1,2.53,2.16,2.8,2.61c0.72,1.18,0.87,2.27,0.96,2.87c0.11,0.74,0.24,1.53,0.38,2.38
				c0.07,0.43,0.64,0.52,0.85,0.14c0.4-0.74,0.74-1.44,1.03-2.09C564.38,603.12,564.72,602.24,565.01,601.36z"/>
			<path d="M598.15,674.54v2.07c-0.78,0.12-1.42,0.29-1.93,0.51c-0.5,0.22-1.06,0.56-1.67,1.03c-0.6,0.47-1.33,1.18-2.16,2.11
				c-0.84,0.94-1.81,2.16-2.91,3.66l-12.44,16.87v8.57c0,1.1,0.05,1.94,0.13,2.51c0.09,0.58,0.25,1.04,0.48,1.39
				c0.23,0.36,0.51,0.64,0.84,0.86c0.34,0.22,0.8,0.42,1.39,0.6c0.59,0.17,1.39,0.31,2.41,0.42v2.06h-23.93v-2.06
				c1.18-0.15,2.13-0.34,2.84-0.56c0.71-0.23,1.23-0.57,1.58-1c0.35-0.44,0.57-1,0.67-1.68c0.1-0.67,0.16-1.52,0.16-2.54v-8.57
				l-11.75-17.87c-1.01-1.52-1.81-2.65-2.39-3.38c-0.66-0.85-1.23-1.46-1.71-1.84c-0.47-0.37-0.92-0.63-1.32-0.78
				c-0.4-0.15-0.97-0.25-1.69-0.31v-2.07h23.1v2.07c-2.22,0.21-3.33,1-3.33,2.37c0,0.54,0.18,1.19,0.54,1.94
				c0.36,0.75,0.94,1.75,1.75,3l7.33,11.75l7.93-11.47c0.78-1.15,1.32-2.1,1.63-2.86c0.3-0.76,0.45-1.51,0.45-2.26
				s-0.3-1.34-0.89-1.77c-0.59-0.43-1.42-0.66-2.49-0.7v-2.07H598.15z"/>
			<path class="st1" d="M597.58,341.59c0,43.93-15.2,85.63-43.22,119.58l-0.03,0.2c-0.94-0.12-1.91-0.19-2.91-0.2
				c-2.34-0.03-4.48,0.24-6.48,0.74c-0.87-14.96-5.51-22.44-10.56-26.44c-0.2-0.15-0.71-0.48-1.57-0.98v-0.01
				c-1.5-0.88-4.05-2.34-7.79-4.46c-16.82-9.57-22.65-11.76-31.83-19.06c-2.11-1.68-4.3-3.43-6.98-6.13
				c-0.76-0.77-1.49-1.53-2.18-2.3c5.01-4.6,9.24-9.21,12.79-13.53h58.53c-0.47-17.35-3.91-41.12-16.51-65.87
				c-10.66-20.94-24.89-36.72-39.3-48.5c-1.82-1.49-3.65-2.92-5.47-4.28l-0.02-0.03c2.65-1.99,4.37-5.16,4.37-8.73
				c0-5.38-3.91-9.86-9.05-10.75c1.38-2.88,2.1-5.87,2.1-8.93c0-23.5-42.75-42.55-95.5-42.55c-52.74,0-95.5,19.05-95.5,42.55
				c0,3.05,0.72,6.03,2.09,8.9c-5.25,0.79-9.28,5.32-9.28,10.78c0,3.52,1.67,6.66,4.26,8.65c-1.54,1.16-3.09,2.36-4.63,3.6
				c-14.74,11.86-29.37,27.88-40.27,49.29c-12.6,24.75-16.04,48.52-16.51,65.87h59.29c3.15,3.98,7.28,8.73,12.53,13.7
				c-0.66,0.71-1.32,1.42-2.03,2.13c-2.69,2.7-4.87,4.45-6.98,6.13c-9.18,7.3-15.01,9.49-31.83,19.06
				c-3.63,2.06-6.14,3.49-7.65,4.38c-0.94,0.56-1.5,0.91-1.71,1.07c-5.07,4.01-9.73,11.53-10.57,26.58
				c-2.17-0.58-4.49-0.91-7.05-0.88c-1.15,0.02-2.27,0.1-3.33,0.26c-28.16-34-43.44-75.8-43.44-119.84
				c0-51.66,21.02-100.22,59.2-136.75c38.17-36.53,88.92-56.65,142.91-56.65s104.74,20.12,142.91,56.65
				C576.56,241.37,597.58,289.93,597.58,341.59z"/>
			<path d="M562.62,594.53c2.23,1.48,3.22,4.28,2.39,6.83c-0.29,0.88-0.63,1.76-1.01,2.63c-0.29,0.65-0.63,1.35-1.03,2.09
				c-0.21,0.38-0.78,0.29-0.85-0.14c-0.14-0.85-0.27-1.64-0.38-2.38c-0.09-0.6-0.24-1.69-0.96-2.87c-0.27-0.45-1.05-1.61-2.8-2.61
				c-10.52-6.01-25.34-7.86-25.34-7.86c-8.12-1.01-12.18-1.51-16.98-1.66c-3.24-0.09-6.47-0.08-9.66,0.03
				c-0.38,0.01-0.6-0.43-0.36-0.73c0.59-0.75,1.33-1.51,2.23-2.2c0.81-0.62,2.03-1.53,3.86-1.85c0.59-0.11,1.1-0.12,1.45-0.12
				c6.47-0.15,15.91,0.16,27.13,2.55c6.28,1.33,11.48,2.44,17.25,5.34C558.96,592.28,560.68,593.23,562.62,594.53z"/>
			<path class="st2" d="M555.35,389h-58.53h-0.76c-1.57-13.88-5.5-30.74-14.58-48c-6.27-11.93-13.96-22.06-22.37-30.65
				c15.67-8.87,29.49-21.01,40.43-35.72c14.41,11.78,28.64,27.56,39.3,48.5C551.44,347.88,554.88,371.65,555.35,389z"/>
			<path d="M532.99,715.14v2.06h-15.98c-1.6-1.67-3.42-4.15-5.44-7.44l-3.23-5.34c-0.97-1.58-1.8-2.71-2.49-3.38
				c-0.7-0.66-1.41-1.12-2.14-1.37c-0.73-0.25-1.86-0.38-3.38-0.38h-2.41v10.07c0,1.56,0.1,2.65,0.29,3.28
				c0.19,0.62,0.57,1.12,1.12,1.5c0.55,0.37,1.58,0.71,3.07,1v2.06h-21.79v-2.06c1.03-0.21,1.83-0.43,2.43-0.67
				c0.59-0.24,1.04-0.58,1.33-1c0.29-0.43,0.48-0.97,0.56-1.63c0.08-0.66,0.12-1.48,0.12-2.48v-26.94c0-0.98-0.03-1.8-0.1-2.47
				s-0.25-1.21-0.54-1.62c-0.29-0.42-0.73-0.76-1.33-1.02c-0.59-0.26-1.42-0.49-2.47-0.7v-2.07h24.2c3.26,0,6.04,0.18,8.32,0.52
				c2.28,0.34,4.28,0.87,6,1.58c1.44,0.58,2.66,1.32,3.65,2.2c1,0.89,1.77,1.92,2.3,3.09c0.54,1.18,0.81,2.55,0.81,4.11
				c0,2.05-0.47,3.8-1.43,5.25c-0.95,1.46-2.24,2.68-3.86,3.64c-1.62,0.97-3.78,1.89-6.49,2.74v0.31c2.04,0.67,3.74,1.56,5.08,2.67
				c1.34,1.12,2.55,2.53,3.63,4.24l2.62,4.25c1.16,1.89,2.31,3.32,3.46,4.26C530.05,714.35,531.41,714.93,532.99,715.14z
				 M512.67,690.26c0.32-1.08,0.48-2.27,0.48-3.56c0-2.83-0.88-4.96-2.65-6.37c-1.78-1.42-4.4-2.13-7.89-2.13
				c-2.38,0-3.94,0.02-4.69,0.06v17.38h4.11c2.21,0,4.04-0.23,5.48-0.67c1.44-0.45,2.58-1.08,3.42-1.88
				C511.77,692.29,512.36,691.35,512.67,690.26z"/>
			<path d="M532.81,434.48L532.81,434.48l-1.45,33.88c-5.06,3.11-14.39,9.33-21.56,20.9c-3.15,5.09-5.12,10.07-6.6,16.05
				c-1.68,6.84-2.71,14.98-4.12,26.08c-1.22,9.59-0.85,11.99-2.81,27.32c-0.45,3.53-0.9,6.75-1.35,9.78h-34.63l3.36-32.94
				l12.93-126.66c2.65-2.09,5.14-4.22,7.45-6.36c0.69,0.77,1.42,1.53,2.18,2.3c2.68,2.7,4.87,4.45,6.98,6.13
				c9.18,7.3,15.01,9.49,31.83,19.06C528.76,432.14,531.31,433.6,532.81,434.48z"/>
			<path class="st0" d="M450.39,383.16c1.87,1.55,4.27,2.49,6.89,2.49c5.94,0,10.76-4.82,10.76-10.76c0-5.95-4.82-10.77-10.76-10.77
				c-5.95,0-10.77,4.82-10.77,10.77C446.51,378.21,448.02,381.18,450.39,383.16z M341.31,382.98c2.25-1.97,3.67-4.86,3.67-8.09
				c0-5.95-4.82-10.77-10.76-10.77c-5.95,0-10.77,4.82-10.77,10.77c0,5.94,4.82,10.76,10.77,10.76
				C336.93,385.65,339.42,384.64,341.31,382.98z M397.17,437.5c-0.54,0.01-1.02,0.01-1.42,0.01c-8.8,0-39.86-0.9-70.73-21.29
				c-0.9-0.59-1.79-1.2-2.68-1.82c-2.83-1.97-5.46-3.98-7.9-6c-2.33-1.91-4.49-3.82-6.49-5.7c-5.25-4.97-9.38-9.72-12.53-13.7
				c1.57-13.88,5.5-30.74,14.58-48c6.43-12.21,14.32-22.54,22.97-31.26c19.82,11.44,42.57,17.58,66.05,17.13
				c21.42-0.41,41.99-6.28,60.09-16.52c8.41,8.59,16.1,18.72,22.37,30.65c9.08,17.26,13.01,34.12,14.58,48h0.76
				c-3.55,4.32-7.78,8.93-12.79,13.53c-2.31,2.14-4.8,4.27-7.45,6.36c-1.86,1.48-3.81,2.94-5.84,4.36l-0.01,0.01
				c-0.48,0.35-0.96,0.69-1.45,1.02C438.13,435.63,406.87,437.38,397.17,437.5z M435.65,344.12c0-5.56-4.5-10.06-10.05-10.06
				s-10.06,4.5-10.06,10.06c0,5.55,4.51,10.05,10.06,10.05S435.65,349.67,435.65,344.12z M376.25,344.12
				c0-5.56-4.5-10.06-10.06-10.06c-5.55,0-10.05,4.5-10.05,10.06c0,5.55,4.5,10.05,10.05,10.05
				C371.75,354.17,376.25,349.67,376.25,344.12z"/>
			<path d="M459.11,310.35c-18.1,10.24-38.67,16.11-60.09,16.52c-23.48,0.45-46.23-5.69-66.05-17.13
				c-15.3-8.84-28.86-20.83-39.64-35.38l-0.42-0.52c1.54-1.24,3.09-2.44,4.63-3.6h0.01c1.84,1.43,4.15,2.27,6.65,2.27
				c1.19,0,2.33-0.19,3.4-0.54l0.14,0.42c20.52,11.85,51.37,24.46,89.9,24.01c35.17-0.41,64.16-11.58,86.11-24.55h0.01
				c1.17,0.43,2.43,0.66,3.74,0.66c2.45,0,4.73-0.81,6.55-2.19l0.02,0.03c1.82,1.36,3.65,2.79,5.47,4.28
				C488.6,289.34,474.78,301.48,459.11,310.35z"/>
			<path class="st0" d="M489.37,250.84c5.14,0.89,9.05,5.37,9.05,10.75c0,3.57-1.72,6.74-4.37,8.73c-1.82,1.38-4.1,2.19-6.55,2.19
				c-1.31,0-2.57-0.23-3.74-0.66h-0.01c-3.3-1.21-5.85-3.96-6.78-7.38c-0.25-0.92-0.38-1.89-0.38-2.88
				c0-6.02,4.88-10.91,10.91-10.91C488.14,250.68,488.76,250.73,489.37,250.84z"/>
			<path class="st3" d="M460.29,568.49h34.63c-0.66,4.5-1.31,8.59-1.97,12.68c-4.14,25.79-5.86,30.64-5.36,41.88
				c0.19,4.34,0.39,8.31,1.3,12.48H302.65c0.92-4.17,1.12-8.14,1.31-12.48c0.5-11.24-1.22-16.09-5.36-41.88
				c-0.66-4.09-1.31-8.18-1.98-12.68h0.01h34.42l-3.42-32.94h136.02L460.29,568.49z"/>
			<path class="st3" d="M491.47,241.91c0,3.06-0.72,6.05-2.1,8.93c-0.61-0.11-1.23-0.16-1.87-0.16c-6.03,0-10.91,4.89-10.91,10.91
				c0,0.99,0.13,1.96,0.38,2.88c-16.88,12.01-46.85,19.99-81,19.99c-34.29,0-64.36-8.05-81.2-20.14c0.22-0.88,0.34-1.79,0.34-2.73
				c0-6.02-4.88-10.91-10.91-10.91c-0.56,0-1.11,0.04-1.64,0.13c-1.37-2.87-2.09-5.85-2.09-8.9c0-23.5,42.76-42.55,95.5-42.55
				C448.72,199.36,491.47,218.41,491.47,241.91z"/>
			<path class="st0" d="M476.97,264.47c0.93,3.42,3.48,6.17,6.78,7.38c-21.95,12.97-50.94,24.14-86.11,24.55
				c-38.53,0.45-69.38-12.16-89.9-24.01l-0.14-0.42c3.52-1.16,6.24-4.04,7.17-7.65c16.84,12.09,46.91,20.14,81.2,20.14
				C430.12,284.46,460.09,276.48,476.97,264.47z"/>
			<path class="st0" d="M476.58,408.89l-12.93,126.66H327.63L314.44,408.4c2.44,2.02,5.07,4.03,7.9,6c0.89,0.62,1.78,1.23,2.68,1.82
				l21.32,45.83l50.12-24.21l51.07,24.21l23.2-48.79l0.01-0.01C472.77,411.83,474.72,410.37,476.58,408.89z M405.52,466.33
				c0-5.55-4.5-10.05-10.05-10.05c-5.55,0-10.05,4.5-10.05,10.05c0,5.55,4.5,10.05,10.05,10.05
				C401.02,476.38,405.52,471.88,405.52,466.33z M405.52,505.27c0-5.56-4.5-10.06-10.05-10.06c-5.55,0-10.05,4.5-10.05,10.06
				c0,5.55,4.5,10.05,10.05,10.05C401.02,515.32,405.52,510.82,405.52,505.27z"/>
			<path class="st0" d="M469.28,414.28c0.49-0.33,0.97-0.67,1.45-1.02l-23.2,48.79l-51.07-24.21l0.71-0.34
				C406.87,437.38,438.13,435.63,469.28,414.28z"/>
			<path class="st1" d="M457.28,364.12c5.94,0,10.76,4.82,10.76,10.77c0,5.94-4.82,10.76-10.76,10.76c-2.62,0-5.02-0.94-6.89-2.49
				c-2.37-1.98-3.88-4.95-3.88-8.27C446.51,368.94,451.33,364.12,457.28,364.12z"/>
			<path d="M461.24,705.79l-0.89,11.41H414.7v-2.06c1.15-0.21,2.06-0.43,2.72-0.67c0.67-0.24,1.16-0.58,1.49-1
				c0.32-0.43,0.53-0.97,0.62-1.63c0.1-0.66,0.14-1.48,0.14-2.48v-26.94c0-0.98-0.04-1.8-0.11-2.47c-0.08-0.67-0.28-1.21-0.61-1.62
				c-0.32-0.42-0.82-0.76-1.48-1.02c-0.67-0.26-1.59-0.49-2.77-0.7v-2.07h46.07v9.94h-6.36c-1.02-1.98-1.89-3.32-2.6-4.01
				c-0.71-0.7-1.57-1.25-2.56-1.66c-0.99-0.41-2.67-0.61-5.06-0.61h-10.12v15h6.13c1.36,0,2.43-0.13,3.2-0.39
				c0.78-0.26,1.42-0.69,1.93-1.3c0.51-0.6,1-1.54,1.46-2.81h5.25v12.69h-5.25c-0.43-1.21-0.91-2.13-1.44-2.77
				c-0.52-0.63-1.15-1.09-1.88-1.36c-0.73-0.27-1.82-0.4-3.27-0.4h-6.13v16.68h10.08c1.08,0,1.99-0.04,2.74-0.14
				c0.74-0.09,1.4-0.25,1.99-0.48c0.59-0.23,1.16-0.54,1.7-0.94c0.54-0.39,1.02-0.82,1.44-1.28c0.42-0.46,0.86-1.06,1.32-1.81
				c0.47-0.75,0.98-1.78,1.53-3.1H461.24z"/>
			<path d="M425.6,334.06c5.55,0,10.05,4.5,10.05,10.06c0,5.55-4.5,10.05-10.05,10.05s-10.06-4.5-10.06-10.05
				C415.54,338.56,420.05,334.06,425.6,334.06z"/>
			<circle cx="395.47" cy="466.33" r="10.05"/>
			<path d="M395.47,495.21c5.55,0,10.05,4.5,10.05,10.06c0,5.55-4.5,10.05-10.05,10.05c-5.55,0-10.05-4.5-10.05-10.05
				C385.42,499.71,389.92,495.21,395.47,495.21z"/>
			<path class="st0" d="M396.46,437.84l-50.12,24.21l-21.32-45.83c30.87,20.39,61.93,21.29,70.73,21.29L396.46,437.84z"/>
			<path d="M396,715.17v2.03h-22.28v-2.06c0.93-0.11,1.56-0.28,1.89-0.52c0.33-0.24,0.5-0.55,0.5-0.95c0-0.33-0.07-0.66-0.19-0.99
				c-0.12-0.32-0.42-0.79-0.88-1.42c-0.47-0.62-1.41-1.77-2.84-3.43l-6.29-7.38c-0.77-0.9-1.43-1.59-1.99-2.09s-1.13-0.86-1.69-1.08
				c-0.56-0.22-1.33-0.33-2.32-0.33h-0.82v12.41c0,0.73,0.02,1.4,0.08,2.03c0.05,0.62,0.16,1.13,0.33,1.53c0.16,0.4,0.4,0.73,0.72,1
				c0.31,0.27,0.74,0.5,1.29,0.7s1.22,0.37,2.02,0.52v2.06h-21.58v-2.06c1.01-0.21,1.81-0.43,2.4-0.67c0.59-0.24,1.03-0.58,1.32-1
				c0.28-0.43,0.47-0.97,0.55-1.63c0.08-0.66,0.12-1.48,0.12-2.48v-26.94c0-0.98-0.03-1.8-0.1-2.47c-0.07-0.67-0.24-1.21-0.53-1.62
				c-0.29-0.42-0.73-0.76-1.32-1.02s-1.4-0.49-2.44-0.7v-2.07h21.58v2.07c-1.15,0.23-2,0.48-2.53,0.75
				c-0.54,0.27-0.93,0.59-1.19,0.97c-0.26,0.37-0.45,0.85-0.56,1.43c-0.11,0.59-0.16,1.47-0.16,2.66v11.12h0.86
				c1.26,0,2.26-0.1,3-0.31c0.74-0.21,1.5-0.58,2.28-1.12c0.78-0.54,2.29-1.81,4.53-3.8c2.23-1.99,3.84-3.52,4.85-4.59
				c1-1.08,1.68-1.96,2.05-2.66s0.56-1.39,0.56-2.08c0-0.73-0.33-1.3-0.97-1.72c-0.64-0.41-1.56-0.63-2.73-0.65v-2.07h21v2.13
				c-1.04,0.15-1.93,0.36-2.67,0.66c-0.74,0.29-1.59,0.76-2.55,1.42c-0.96,0.65-2.18,1.62-3.66,2.89l-12.33,10.5l14.35,16.75
				c1.07,1.25,1.96,2.24,2.69,2.98s1.36,1.32,1.91,1.74c0.55,0.41,1.09,0.73,1.62,0.95C394.42,714.78,395.12,714.98,396,715.17z"/>
			<path d="M366.19,334.06c5.56,0,10.06,4.5,10.06,10.06c0,5.55-4.5,10.05-10.06,10.05c-5.55,0-10.05-4.5-10.05-10.05
				C356.14,338.56,360.64,334.06,366.19,334.06z"/>
			<path class="st1" d="M334.22,364.12c5.94,0,10.76,4.82,10.76,10.77c0,3.23-1.42,6.12-3.67,8.09c-1.89,1.66-4.38,2.67-7.09,2.67
				c-5.95,0-10.77-4.82-10.77-10.76C323.45,368.94,328.27,364.12,334.22,364.12z"/>
			<path d="M327.63,535.55l3.42,32.94h-34.42h-0.01c-0.44-3.03-0.89-6.25-1.34-9.78c-1.97-15.33-1.59-17.73-2.81-27.32
				c-2.65-20.83-3.97-31.24-10.72-42.13c-6.84-11.03-15.64-17.2-20.82-20.43l-1.47-34.43c1.51-0.89,4.02-2.32,7.65-4.38
				c16.82-9.57,22.65-11.76,31.83-19.06c2.11-1.68,4.29-3.43,6.98-6.13c0.71-0.71,1.37-1.42,2.03-2.13c2,1.88,4.16,3.79,6.49,5.7
				L327.63,535.55z"/>
			<path class="st2" d="M332.97,309.74c-8.65,8.72-16.54,19.05-22.97,31.26c-9.08,17.26-13.01,34.12-14.58,48h-59.29
				c0.47-17.35,3.91-41.12,16.51-65.87c10.9-21.41,25.53-37.43,40.27-49.29l0.42,0.52C304.11,288.91,317.67,300.9,332.97,309.74z"/>
			<path d="M318,715.14v2.06h-23.31v-2.06c1.47-0.13,2.55-0.43,3.25-0.91c0.71-0.48,1.06-1.15,1.06-2.03c0-0.65-0.1-1.36-0.3-2.16
				c-0.19-0.79-0.52-1.79-0.97-3l-1.14-3.06h-18.03l-1.39,2.97c-0.4,0.83-0.72,1.64-0.97,2.42c-0.26,0.78-0.38,1.61-0.38,2.49
				c0,2.04,1.46,3.13,4.39,3.28v2.06h-18.03v-2.06c1.04-0.09,1.95-0.36,2.74-0.81c0.79-0.46,1.51-1.09,2.16-1.88
				c0.64-0.79,1.33-1.93,2.06-3.41l17.61-34.71h11.28l13.93,35c0.62,1.56,1.14,2.67,1.57,3.32c0.42,0.66,0.97,1.19,1.64,1.6
				C315.85,714.65,316.79,714.95,318,715.14z M295.37,700.33l-6.76-17.6l-8.44,17.6H295.37z"/>
			<path class="st0" d="M315.11,261.59c0,0.94-0.12,1.85-0.34,2.73c-0.93,3.61-3.65,6.49-7.17,7.65c-1.07,0.35-2.21,0.54-3.4,0.54
				c-2.5,0-4.81-0.84-6.65-2.27h-0.01c-2.59-1.99-4.26-5.13-4.26-8.65c0-5.46,4.03-9.99,9.28-10.78c0.53-0.09,1.08-0.13,1.64-0.13
				C310.23,250.68,315.11,255.57,315.11,261.59z"/>
			<path class="st2" d="M298.6,581.17c4.14,25.79,5.86,30.64,5.36,41.88c-0.19,4.34-0.39,8.31-1.31,12.48
				c-0.5,2.3-1.22,4.66-2.27,7.18c-1.88,4.51-6.06,14.49-16.59,19.91c-13.28,6.84-26.95,1.42-29.87,0.26
				c-10.93-4.34-16.8-12.4-21.71-19.15c-2.07-2.85-3.71-5.51-5.13-8.2c-2.35-4.42-4.13-8.93-6.35-14.53
				c-4.46-11.22-7.97-19.95-10.85-27.21c-1.21-3.06-2.31-5.87-3.33-8.49c-4.71-12.13-7.51-20.25-10.85-31.96
				c-3.15-11.06-4.05-15.79-4.08-21.7c-0.06-13.01,4.17-22.78,8.68-33.19c1.54-3.55,6.59-14.75,15.83-25.28
				c2.59-2.94,5.19-5.48,8.94-7.66c1.41-0.81,5.79-3.29,11.73-4.08c1.06-0.16,2.18-0.24,3.33-0.26c2.56-0.03,4.88,0.3,7.05,0.88
				c4.48,1.19,8.28,3.45,12.1,5.76c0.5,0.3,1.05,0.64,1.65,1.02c5.18,3.23,13.98,9.4,20.82,20.43c6.75,10.89,8.07,21.3,10.72,42.13
				c1.22,9.59,0.84,11.99,2.81,27.32c0.45,3.53,0.9,6.75,1.34,9.78C297.29,572.99,297.94,577.08,298.6,581.17z M285.02,588.24
				c0.39,0.01,0.61-0.43,0.37-0.73c-0.6-0.75-1.34-1.51-2.24-2.2c-0.81-0.62-2.03-1.53-3.86-1.85c-0.59-0.11-1.1-0.12-1.45-0.12
				c-6.47-0.15-15.91,0.16-27.13,2.55c-6.28,1.33-11.48,2.44-17.25,5.33c-1.4,0.71-3.12,1.66-5.06,2.95
				c-2.23,1.49-3.22,4.29-2.38,6.83c0.29,0.89,0.62,1.77,1.01,2.64c0.28,0.65,0.62,1.35,1.03,2.09c0.2,0.38,0.77,0.29,0.84-0.14
				c0.15-0.86,0.27-1.65,0.38-2.38c0.09-0.6,0.24-1.69,0.96-2.87c0.27-0.45,1.05-1.61,2.81-2.62c10.51-6,25.34-7.85,25.34-7.85
				c8.12-1.01,12.18-1.51,16.97-1.66C278.6,588.12,281.83,588.13,285.02,588.24z"/>
			<path d="M285.39,587.51c0.24,0.3,0.02,0.74-0.37,0.73c-3.19-0.11-6.42-0.12-9.66-0.03c-4.79,0.15-8.85,0.65-16.97,1.66
				c0,0-14.83,1.85-25.34,7.85c-1.76,1.01-2.54,2.17-2.81,2.62c-0.72,1.18-0.87,2.27-0.96,2.87c-0.11,0.73-0.23,1.52-0.38,2.38
				c-0.07,0.43-0.64,0.52-0.84,0.14c-0.41-0.74-0.75-1.44-1.03-2.09c-0.39-0.87-0.72-1.75-1.01-2.64c-0.84-2.54,0.15-5.34,2.38-6.83
				c1.94-1.29,3.66-2.24,5.06-2.95c5.77-2.89,10.97-4,17.25-5.33c11.22-2.39,20.66-2.7,27.13-2.55c0.35,0,0.86,0.01,1.45,0.12
				c1.83,0.32,3.05,1.23,3.86,1.85C284.05,586,284.79,586.76,285.39,587.51z"/>
			<path d="M241.88,698.84c2.07,1.74,3.1,3.83,3.1,6.27c0,2.08-0.47,3.89-1.41,5.43c-0.95,1.55-2.38,2.81-4.31,3.8
				c-1.92,0.99-4.19,1.71-6.79,2.17c-2.6,0.46-5.92,0.69-9.94,0.69h-25.99v-2.06c1.04-0.21,1.86-0.43,2.46-0.67
				c0.61-0.24,1.06-0.58,1.35-1c0.3-0.43,0.49-0.97,0.57-1.63c0.09-0.66,0.13-1.48,0.13-2.48v-26.94c0-0.98-0.03-1.8-0.1-2.47
				c-0.07-0.67-0.26-1.21-0.55-1.62c-0.3-0.42-0.75-0.76-1.35-1.02c-0.61-0.26-1.45-0.49-2.51-0.7v-2.07h27.64
				c3.15,0,5.72,0.12,7.72,0.35c2.64,0.31,4.94,0.85,6.88,1.62c1.74,0.69,3.11,1.67,4.09,2.94c0.99,1.27,1.48,2.78,1.48,4.53
				c0,4.71-3.83,8.24-11.48,10.6v0.28C236.81,695.77,239.81,697.1,241.88,698.84z M231.94,705.23c0-1.5-0.25-2.78-0.76-3.86
				c-0.5-1.07-1.26-1.94-2.28-2.59c-1.01-0.66-2.22-1.14-3.63-1.44c-1.4-0.3-3.16-0.45-5.27-0.45h-5.87v16.56
				c1.66,0.06,3.58,0.09,5.74,0.09c2.67,0,4.88-0.24,6.61-0.73s3.07-1.34,4.03-2.56C231.46,709.03,231.94,707.36,231.94,705.23z
				 M230.02,689.75c0.83-1.12,1.25-2.65,1.25-4.61c0-1.73-0.45-3.1-1.35-4.11c-0.91-1.01-2.19-1.74-3.84-2.17
				c-1.66-0.44-3.73-0.66-6.21-0.66c-1.97,0-3.88,0.05-5.74,0.16v14.87h5.62c2.81,0,5.02-0.3,6.62-0.9
				C227.97,691.72,229.19,690.86,230.02,689.75z"/>
			<path class="st0" d="M227.08,635.53H144.6c0.03-2.11,0.25-4.44,0.81-6.91c0.52-2.34,1.77-6.7,4.85-11.24
				c4.7-6.93,10.9-10.21,14.04-11.87c7.91-4.18,23.94-8.59,45.58-11.72c2.88,7.26,6.39,15.99,10.85,27.21
				C222.95,626.6,224.73,631.11,227.08,635.53z"/>
			<polygon class="st1" points="145.38,669.65 169.15,694.21 145.87,719.1 118.27,694.65 			"/>
		</g>
		<g>
			<path class="st4" d="M236.8,461.43c-28.16-34-43.44-75.8-43.44-119.84c0-51.66,21.02-100.22,59.2-136.75
				c38.17-36.53,88.92-56.65,142.91-56.65s104.74,20.12,142.91,56.65c38.18,36.53,59.2,85.09,59.2,136.75
				c0,43.93-15.2,85.63-43.22,119.58"/>
			<path class="st5" d="M307.96,402.69l-0.01,0.01c-0.66,0.71-1.32,1.42-2.03,2.13c-2.69,2.7-4.87,4.45-6.98,6.13
				c-9.18,7.3-15.01,9.49-31.83,19.06c-3.63,2.06-6.14,3.49-7.65,4.38c-0.94,0.56-1.5,0.91-1.71,1.07
				c-5.07,4.01-9.73,11.53-10.57,26.58"/>
			<path class="st5" d="M532.81,434.49c0.86,0.5,1.37,0.83,1.57,0.98c5.05,4,9.69,11.48,10.56,26.44"/>
			<path class="st5" d="M484.03,402.53c0.69,0.77,1.42,1.53,2.18,2.3c2.68,2.7,4.87,4.45,6.98,6.13c9.18,7.3,15.01,9.49,31.83,19.06
				c3.74,2.12,6.29,3.58,7.79,4.46"/>
			<line class="st5" x1="259.46" y1="434.4" x2="260.93" y2="468.83"/>
			<polyline class="st5" points="532.81,434.48 532.81,434.49 531.36,468.36 			"/>
			<path class="st4" d="M206.54,585.3C133.88,528.89,87.12,440.7,87.12,341.59c0-170.29,138.06-308.34,308.35-308.34
				S703.82,171.3,703.82,341.59c0,98.72-46.39,186.6-118.56,243.04"/>
			<path class="st6" d="M297.55,270.24c1.84,1.43,4.15,2.27,6.65,2.27c1.19,0,2.33-0.19,3.4-0.54c3.52-1.16,6.24-4.04,7.17-7.65
				c0.22-0.88,0.34-1.79,0.34-2.73c0-6.02-4.88-10.91-10.91-10.91c-0.56,0-1.11,0.04-1.64,0.13c-5.25,0.79-9.28,5.32-9.28,10.78
				c0,3.52,1.67,6.66,4.26,8.65"/>
			<path class="st6" d="M483.76,271.85c1.17,0.43,2.43,0.66,3.74,0.66c2.45,0,4.73-0.81,6.55-2.19c2.65-1.99,4.37-5.16,4.37-8.73
				c0-5.38-3.91-9.86-9.05-10.75c-0.61-0.11-1.23-0.16-1.87-0.16c-6.03,0-10.91,4.89-10.91,10.91c0,0.99,0.13,1.96,0.38,2.88
				c0.93,3.42,3.48,6.17,6.78,7.38"/>
			<path class="st6" d="M314.77,264.32c16.84,12.09,46.91,20.14,81.2,20.14c34.15,0,64.12-7.98,81-19.99"/>
			<path class="st6" d="M489.37,250.84c1.38-2.88,2.1-5.87,2.1-8.93c0-23.5-42.75-42.55-95.5-42.55c-52.74,0-95.5,19.05-95.5,42.55
				c0,3.05,0.72,6.03,2.09,8.9"/>
			<path class="st6" d="M297.55,270.24h-0.01c-1.54,1.16-3.09,2.36-4.63,3.6c-14.74,11.86-29.37,27.88-40.27,49.29
				c-12.6,24.75-16.04,48.52-16.51,65.87h59.29c1.57-13.88,5.5-30.74,14.58-48c6.43-12.21,14.32-22.54,22.97-31.26"/>
			<path class="st6" d="M458.93,310.16c0.06,0.06,0.12,0.13,0.18,0.19c8.41,8.59,16.1,18.72,22.37,30.65
				c9.08,17.26,13.01,34.12,14.58,48h0.76h58.53c-0.47-17.35-3.91-41.12-16.51-65.87c-10.66-20.94-24.89-36.72-39.3-48.5
				c-1.82-1.49-3.65-2.92-5.47-4.28"/>
			<path class="st6" d="M293.33,274.36c10.78,14.55,24.34,26.54,39.64,35.38c19.82,11.44,42.57,17.58,66.05,17.13
				c21.42-0.41,41.99-6.28,60.09-16.52c15.67-8.87,29.49-21.01,40.43-35.72"/>
			<path class="st6" d="M307.74,272.39c20.52,11.85,51.37,24.46,89.9,24.01c35.17-0.41,64.16-11.58,86.11-24.55h0.01"/>
			<path class="st6" d="M470.74,413.25c2.03-1.42,3.98-2.88,5.84-4.36c2.65-2.09,5.14-4.22,7.45-6.36
				c5.01-4.6,9.24-9.21,12.79-13.53"/>
			<path class="st6" d="M295.42,389c3.15,3.98,7.28,8.73,12.53,13.7c2,1.88,4.16,3.79,6.49,5.7c2.44,2.02,5.07,4.03,7.9,6
				c0.89,0.62,1.78,1.23,2.68,1.82c30.87,20.39,61.93,21.29,70.73,21.29c0.4,0,0.88,0,1.42-0.01c9.7-0.12,40.96-1.87,72.11-23.22
				c0.49-0.33,0.97-0.67,1.45-1.02"/>
			<polyline class="st6" points="476.58,408.89 463.65,535.55 460.29,568.49 494.92,568.49 			"/>
			<polyline class="st6" points="296.63,568.49 331.05,568.49 327.63,535.55 314.44,408.4 			"/>
			<line class="st6" x1="327.63" y1="535.55" x2="463.65" y2="535.55"/>
			<polyline class="st6" points="325.02,416.22 346.34,462.05 396.46,437.84 397.17,437.5 397.46,437.36 			"/>
			<polyline class="st6" points="395.75,437.51 396.46,437.84 447.53,462.05 470.73,413.26 470.74,413.25 			"/>
			<circle class="st6" cx="395.47" cy="466.33" r="10.05"/>
			<path class="st7" d="M366.19,334.06c-5.55,0-10.05,4.5-10.05,10.06c0,5.55,4.5,10.05,10.05,10.05c5.56,0,10.06-4.5,10.06-10.05
				C376.25,338.56,371.75,334.06,366.19,334.06z"/>
			<path class="st7" d="M425.6,334.06c-5.55,0-10.06,4.5-10.06,10.06c0,5.55,4.51,10.05,10.06,10.05s10.05-4.5,10.05-10.05
				C435.65,338.56,431.15,334.06,425.6,334.06z"/>
			<path class="st6" d="M395.47,495.21c-5.55,0-10.05,4.5-10.05,10.06c0,5.55,4.5,10.05,10.05,10.05c5.55,0,10.05-4.5,10.05-10.05
				C405.52,499.71,401.02,495.21,395.47,495.21z"/>
			<path class="st6" d="M334.22,364.12c-5.95,0-10.77,4.82-10.77,10.77c0,5.94,4.82,10.76,10.77,10.76c2.71,0,5.2-1.01,7.09-2.67
				c2.25-1.97,3.67-4.86,3.67-8.09C344.98,368.94,340.16,364.12,334.22,364.12z"/>
			<path class="st6" d="M457.28,364.12c-5.95,0-10.77,4.82-10.77,10.77c0,3.32,1.51,6.29,3.88,8.27c1.87,1.55,4.27,2.49,6.89,2.49
				c5.94,0,10.76-4.82,10.76-10.76C468.04,368.94,463.22,364.12,457.28,364.12z"/>
			<path class="st6" d="M341.31,382.98c9.52,9.45,28.23,23.54,55.07,23.38c26.26-0.15,44.56-13.85,54.01-23.2"/>
			<path class="st4" d="M206.55,585.3c-4.71-12.13-7.51-20.25-10.85-31.96c-3.15-11.06-4.05-15.79-4.08-21.7
				c-0.06-13.01,4.17-22.78,8.68-33.19c1.54-3.55,6.59-14.75,15.83-25.28c2.59-2.94,5.19-5.48,8.94-7.66
				c1.41-0.81,5.79-3.29,11.73-4.08c1.06-0.16,2.18-0.24,3.33-0.26c2.56-0.03,4.88,0.3,7.05,0.88c4.48,1.19,8.28,3.45,12.1,5.76
				c0.5,0.3,1.05,0.64,1.65,1.02c5.18,3.23,13.98,9.4,20.82,20.43c6.75,10.89,8.07,21.3,10.72,42.13
				c1.22,9.59,0.84,11.99,2.81,27.32c0.45,3.53,0.9,6.75,1.34,9.78c0.67,4.5,1.32,8.59,1.98,12.68c4.14,25.79,5.86,30.64,5.36,41.88
				c-0.19,4.34-0.39,8.31-1.31,12.48c-0.5,2.3-1.22,4.66-2.27,7.18c-1.88,4.51-6.06,14.49-16.59,19.91
				c-13.28,6.84-26.95,1.42-29.87,0.26c-10.93-4.34-16.8-12.4-21.71-19.15c-2.07-2.85-3.71-5.51-5.13-8.2
				c-2.35-4.42-4.13-8.93-6.35-14.53c-4.46-11.22-7.97-19.95-10.85-27.21C208.67,590.73,207.57,587.92,206.55,585.3z"/>
			<path class="st4" d="M503.2,505.31c1.48-5.98,3.45-10.96,6.6-16.05c7.17-11.57,16.5-17.79,21.56-20.9
				c0.32-0.19,0.62-0.38,0.91-0.55c3.98-2.4,7.94-4.75,12.67-5.9c2-0.5,4.14-0.77,6.48-0.74c1,0.01,1.97,0.08,2.91,0.2
				c6.15,0.73,10.7,3.31,12.15,4.14c3.75,2.18,6.35,4.72,8.94,7.66c9.23,10.53,14.29,21.73,15.83,25.28
				c4.51,10.41,8.74,20.18,8.68,33.19c-0.03,5.91-0.94,10.64-4.09,21.7c-3.27,11.49-6.03,19.52-10.58,31.29
				c-1.09,2.8-2.27,5.81-3.58,9.13c-2.88,7.27-6.4,16.01-10.86,27.24c-2.22,5.6-4.01,10.11-6.36,14.53
				c-1.42,2.69-3.05,5.35-5.13,8.2c-4.91,6.75-10.77,14.81-21.7,19.15c-2.92,1.16-16.59,6.58-29.87-0.26
				c-10.53-5.42-14.71-15.4-16.6-19.91c-1.05-2.52-1.77-4.88-2.27-7.18c-0.91-4.17-1.11-8.14-1.3-12.48
				c-0.5-11.24,1.22-16.09,5.36-41.88c0.66-4.09,1.31-8.18,1.97-12.68c0.45-3.03,0.9-6.25,1.35-9.78
				c1.96-15.33,1.59-17.73,2.81-27.32C500.49,520.29,501.52,512.15,503.2,505.31"/>
			<path class="st4" d="M564.46,635.53h82.72h0.64c32.46,0,58.78,26.32,58.78,58.78c0,16.23-6.58,30.93-17.22,41.56
				c-10.63,10.64-25.33,17.22-41.56,17.22H144.18c-32.46,0-58.77-26.32-58.77-58.78c0-16.23,6.58-30.93,17.21-41.56
				c10.64-10.64,25.33-17.22,41.56-17.22h0.42h82.48"/>
			<line class="st4" x1="302.65" y1="635.53" x2="488.89" y2="635.53"/>
			<path class="st4" d="M144.6,635.53c0.03-2.11,0.25-4.44,0.81-6.91c0.52-2.34,1.77-6.7,4.85-11.24
				c4.7-6.93,10.9-10.21,14.04-11.87c7.91-4.18,23.94-8.59,45.58-11.72"/>
			<path class="st4" d="M647.18,635.53c-0.02-2.11-0.24-4.44-0.8-6.91c-0.53-2.34-1.77-6.7-4.85-11.24
				c-4.7-6.93-10.91-10.21-14.04-11.87c-7.95-4.2-24.05-8.62-45.81-11.75"/>
			<path class="st8" d="M277.84,583.34c0.35,0,0.86,0.01,1.45,0.12c1.83,0.32,3.05,1.23,3.86,1.85c0.9,0.69,1.64,1.45,2.24,2.2
				c0.24,0.3,0.02,0.74-0.37,0.73c-3.19-0.11-6.42-0.12-9.66-0.03c-4.79,0.15-8.85,0.65-16.97,1.66c0,0-14.83,1.85-25.34,7.85
				c-1.76,1.01-2.54,2.17-2.81,2.62c-0.72,1.18-0.87,2.27-0.96,2.87c-0.11,0.73-0.23,1.52-0.38,2.38c-0.07,0.43-0.64,0.52-0.84,0.14
				c-0.41-0.74-0.75-1.44-1.03-2.09c-0.39-0.87-0.72-1.75-1.01-2.64c-0.84-2.54,0.15-5.34,2.38-6.83c1.94-1.29,3.66-2.24,5.06-2.95
				c5.77-2.89,10.97-4,17.25-5.33C261.93,583.5,271.37,583.19,277.84,583.34z"/>
			<path class="st8" d="M513.18,583.69c-0.35,0-0.86,0.01-1.45,0.12c-1.83,0.32-3.05,1.23-3.86,1.85c-0.9,0.69-1.64,1.45-2.23,2.2
				c-0.24,0.3-0.02,0.74,0.36,0.73c3.19-0.11,6.42-0.12,9.66-0.03c4.8,0.15,8.86,0.65,16.98,1.66c0,0,14.82,1.85,25.34,7.86
				c1.75,1,2.53,2.16,2.8,2.61c0.72,1.18,0.87,2.27,0.96,2.87c0.11,0.74,0.24,1.53,0.38,2.38c0.07,0.43,0.64,0.52,0.85,0.14
				c0.4-0.74,0.74-1.44,1.03-2.09c0.38-0.87,0.72-1.75,1.01-2.63c0.83-2.55-0.16-5.35-2.39-6.83c-1.94-1.3-3.66-2.25-5.06-2.95
				c-5.77-2.9-10.97-4.01-17.25-5.34C529.09,583.85,519.65,583.54,513.18,583.69z"/>
		</g>
	</g>
	<g>
		<path class="st4" d="M-604.93,585.3"/>
		<path class="st5" d="M-599.34,389"/>
		<path class="st9" d="M-508.91,250.81"/>
		<path class="st5" d="M-546.83,555.98"/>
		<path class="st5" d="M-283.84,555.98"/>
		<g>
			<path d="M-638.15,317.95l1.7-12.42c0.19-1.36,0.26-2.51,0.23-3.45c-0.03-0.94-0.17-1.75-0.41-2.45
				c-0.24-0.69-0.62-1.34-1.13-1.94c-0.51-0.6-1.21-1.2-2.09-1.81c-0.88-0.6-2.01-1.22-3.39-1.84s-3.46-1.45-6.25-2.48l0.66-4.79
				l18.93,3.56l-5.85,42.62l-2.32-0.32c-0.24-2.03-0.62-3.42-1.14-4.17c-0.52-0.75-1.34-1.3-2.45-1.66
				c-1.11-0.36-2.83-0.7-5.17-1.02l-41.01-5.63c-2.18-0.3-3.78-0.44-4.8-0.42c-1.02,0.02-1.83,0.18-2.43,0.46
				c-0.6,0.29-1.11,0.71-1.53,1.26c-0.41,0.56-0.93,1.53-1.54,2.93l-2.32-0.32l2.74-19.96l2.32,0.32c0.19,1.44,0.39,2.48,0.61,3.1
				c0.22,0.63,0.56,1.16,1.01,1.61c0.45,0.45,1.19,0.84,2.21,1.17c1.02,0.33,2.66,0.66,4.94,0.97L-638.15,317.95z"/>
			<path d="M-636.27,273.38c2.05,0.62,3.56,1,4.55,1.15c0.99,0.15,1.8,0.14,2.45-0.01c0.65-0.15,1.25-0.49,1.8-1.01
				c0.56-0.52,1.23-1.42,2.02-2.72l2.25,0.68l-5.83,19.33l-2.25-0.68c0.08-2.04-0.08-3.47-0.48-4.29s-1.12-1.5-2.16-2.03
				c-1.04-0.53-2.69-1.14-4.95-1.82l-39.63-11.94c-2.11-0.64-3.67-1.02-4.67-1.16c-1.01-0.14-1.83-0.11-2.47,0.08
				c-0.64,0.19-1.21,0.53-1.7,1.01c-0.5,0.48-1.15,1.37-1.97,2.65l-2.25-0.68l5.83-19.33l2.24,0.68c-0.07,1.45-0.03,2.52,0.13,3.21
				c0.16,0.7,0.43,1.3,0.83,1.8c0.4,0.5,1.08,0.99,2.03,1.46c0.96,0.47,2.49,1.03,4.6,1.66L-636.27,273.38z"/>
			<path d="M-683.33,242.93l23.05-46.36l14.91,7.41l-2.09,4.2c-2.77-0.59-5.02-0.94-6.75-1.03c-1.73-0.1-3.14,0.01-4.23,0.33
				s-1.98,0.79-2.68,1.42c-0.7,0.63-1.45,1.73-2.23,3.3l-2.71,5.44l43.88,21.81c1.69,0.84,3.07,1.41,4.17,1.72
				c1.09,0.31,2.03,0.42,2.8,0.33s1.49-0.39,2.15-0.88c0.66-0.49,1.49-1.36,2.5-2.61l2.1,1.04l-9.73,19.58l-2.1-1.04
				c0.23-0.96,0.39-1.82,0.49-2.59c0.1-0.77,0.09-1.44-0.04-2.02c-0.12-0.58-0.37-1.13-0.75-1.66c-0.38-0.53-0.97-1.09-1.78-1.69
				c-0.81-0.6-2.07-1.32-3.78-2.17l-43.88-21.81l-2.68,5.4c-0.67,1.34-1.09,2.51-1.26,3.51c-0.18,1-0.04,2.07,0.4,3.22
				c0.45,1.15,1.26,2.4,2.46,3.76c1.19,1.36,2.8,2.88,4.81,4.56l-2.11,4.24L-683.33,242.93z"/>
			<path d="M-654.79,188.13l32.73-40.12l12.9,10.53l-2.96,3.63c-2.57-1.19-4.69-2.02-6.36-2.5c-1.67-0.48-3.07-0.68-4.19-0.61
				c-1.13,0.07-2.1,0.33-2.93,0.79c-0.83,0.46-1.79,1.37-2.9,2.73l-3.84,4.71l37.97,30.98c1.46,1.19,2.69,2.06,3.68,2.6
				c1,0.55,1.88,0.86,2.66,0.94c0.78,0.08,1.54-0.05,2.29-0.39c0.75-0.34,1.75-1,3.01-1.99l1.82,1.48l-13.83,16.94l-1.82-1.48
				c0.43-0.88,0.78-1.69,1.05-2.42c0.27-0.73,0.4-1.39,0.41-1.98c0.01-0.59-0.12-1.18-0.37-1.78c-0.25-0.6-0.71-1.28-1.36-2.04
				c-0.66-0.76-1.72-1.75-3.21-2.96l-37.97-30.98l-3.81,4.67c-0.95,1.16-1.62,2.21-2.01,3.15c-0.39,0.94-0.5,2.01-0.32,3.23
				c0.18,1.22,0.7,2.62,1.57,4.21c0.86,1.59,2.09,3.43,3.69,5.51l-2.99,3.67L-654.79,188.13z"/>
			<path d="M-563.64,178.2l9.72-7.92c1.06-0.87,1.9-1.65,2.52-2.36c0.62-0.71,1.07-1.4,1.37-2.07c0.3-0.67,0.46-1.4,0.5-2.19
				c0.04-0.79-0.06-1.71-0.3-2.75c-0.23-1.04-0.64-2.27-1.22-3.66c-0.58-1.4-1.54-3.42-2.88-6.08l3.75-3.05l11.41,15.52
				l-33.36,27.17l-1.48-1.82c1.21-1.64,1.88-2.92,2.01-3.83c0.13-0.91-0.09-1.87-0.66-2.89c-0.56-1.02-1.59-2.45-3.08-4.28
				l-26.14-32.09c-1.39-1.71-2.46-2.9-3.22-3.58c-0.76-0.68-1.46-1.12-2.09-1.32c-0.64-0.2-1.3-0.24-1.98-0.12
				c-0.68,0.12-1.72,0.49-3.12,1.09l-1.48-1.82l15.62-12.72l1.48,1.82c-0.85,1.18-1.4,2.08-1.67,2.69
				c-0.27,0.61-0.39,1.23-0.36,1.87c0.03,0.64,0.3,1.42,0.81,2.36s1.5,2.3,2.95,4.08L-563.64,178.2z"/>
			<path d="M-530.35,85.5l6.73,12.79l-4.15,2.18c-1.15-1.16-2.23-2.14-3.23-2.95c-1-0.81-1.93-1.44-2.78-1.89
				c-0.85-0.45-1.68-0.74-2.48-0.86c-0.8-0.12-1.64-0.05-2.51,0.21c-0.87,0.26-1.86,0.68-2.96,1.26l-13.38,7.04l11.67,22.19
				l9.06-4.77c1.24-0.65,2.12-1.34,2.64-2.07c0.52-0.72,0.79-1.63,0.81-2.72c0.02-1.09-0.23-2.65-0.76-4.68l3.98-2.09l8.55,16.26
				l-3.98,2.09c-1.29-1.49-2.4-2.53-3.33-3.14c-0.93-0.61-1.83-0.92-2.68-0.94c-0.86-0.02-1.95,0.32-3.28,1.02l-9.06,4.77
				l12.85,24.44l13.17-6.93c1.38-0.73,2.44-1.44,3.18-2.13c0.73-0.69,1.26-1.49,1.58-2.4c0.32-0.9,0.47-1.95,0.46-3.13
				c-0.01-1.18-0.12-2.36-0.32-3.54c-0.2-1.17-0.53-2.87-0.97-5.08l4.19-2.21l7.01,15.29l-39.21,20.63l-1.09-2.07
				c1.51-1.37,2.42-2.49,2.72-3.35s0.28-1.85-0.07-2.96c-0.35-1.11-1.08-2.71-2.18-4.8l-19.27-36.63c-1.03-1.95-1.84-3.33-2.45-4.14
				s-1.21-1.38-1.79-1.71c-0.58-0.32-1.22-0.49-1.92-0.51c-0.69-0.01-1.79,0.14-3.28,0.45l-1.09-2.08L-530.35,85.5z"/>
			<path d="M-486.84,138.02l-0.47-2.3c1.36-0.67,2.32-1.24,2.88-1.71c0.55-0.47,0.95-1.01,1.19-1.61c0.24-0.6,0.33-1.42,0.28-2.45
				c-0.05-1.03-0.29-2.63-0.73-4.78l-8.27-40.56c-0.45-2.19-0.85-3.76-1.21-4.71c-0.36-0.95-0.77-1.66-1.24-2.12
				c-0.47-0.46-1.03-0.79-1.69-1c-0.66-0.21-1.77-0.36-3.32-0.47l-0.47-2.3l20.54-4.19c5.91-1.2,10.88-1.54,14.91-1.01
				c4.03,0.53,7.6,1.8,10.71,3.8c3.11,2,5.69,4.76,7.74,8.26c2.05,3.51,3.61,7.87,4.67,13.09c1.08,5.28,1.42,10.06,1.04,14.32
				c-0.38,4.26-1.46,7.99-3.21,11.18c-1.52,2.78-3.57,5.24-6.17,7.36c-2.15,1.74-4.75,3.2-7.8,4.37c-3.05,1.18-7.18,2.29-12.4,3.36
				L-486.84,138.02z M-473.43,130.75c1.28-0.13,3.13-0.44,5.57-0.94c2.62-0.54,4.93-1.23,6.9-2.09c1.97-0.86,3.71-1.93,5.21-3.21
				c1.5-1.28,2.75-2.9,3.75-4.84c1-1.95,1.71-4.09,2.11-6.44c0.4-2.34,0.53-4.88,0.38-7.62c-0.15-2.74-0.55-5.68-1.19-8.84
				c-1.29-6.34-3.27-11.37-5.93-15.08c-2.66-3.71-5.85-6.16-9.56-7.35c-3.71-1.2-7.88-1.32-12.51-0.38
				c-2.13,0.43-4.13,0.91-6.01,1.42L-473.43,130.75z"/>
			<path d="M-385.26,106.29c-0.1,3.48-0.51,6.46-1.22,8.96c-0.68,2.37-1.65,4.47-2.92,6.28c-1.17,1.62-2.59,2.99-4.29,4.11
				s-3.73,1.97-6.11,2.57c-2.38,0.6-5.16,0.85-8.35,0.76c-3.86-0.11-7.15-0.64-9.89-1.59c-2.73-0.94-4.97-2.42-6.71-4.44
				s-2.97-4.36-3.69-7.05c-0.72-2.69-1.02-6.09-0.89-10.2l0.94-31.47c0.07-2.49,0.04-4.17-0.09-5.05c-0.13-0.88-0.34-1.58-0.63-2.1
				c-0.29-0.52-0.71-0.97-1.28-1.35c-0.56-0.38-1.62-0.81-3.17-1.27l0.07-2.34l20.09,0.6l-0.07,2.34c-1.8,0.39-3.06,0.86-3.78,1.4
				c-0.72,0.54-1.22,1.36-1.51,2.47c-0.29,1.11-0.47,2.97-0.55,5.58l-1.01,33.86c-0.09,3.09,0.16,5.7,0.75,7.83
				c0.59,2.12,1.46,3.79,2.6,4.98c1.14,1.2,2.52,2.09,4.13,2.66s3.63,0.9,6.05,0.97c2.23,0.07,4.2-0.27,5.92-1
				c1.71-0.73,3.16-1.88,4.34-3.44c1.18-1.56,2.01-3.5,2.5-5.81c0.48-2.31,0.78-5.43,0.9-9.36l0.89-29.89c0.08-2.77,0-4.67-0.24-5.7
				c-0.24-1.03-0.66-1.82-1.27-2.38c-0.61-0.56-1.87-1.12-3.8-1.69l0.07-2.34l19.08,0.57l-0.07,2.34c-1.86,0.42-3.15,0.91-3.85,1.47
				s-1.2,1.37-1.48,2.45c-0.29,1.08-0.47,2.92-0.55,5.54L-385.26,106.29z"/>
			<path d="M-367.72,65.41l50.18,12.75l-4.1,16.14l-4.54-1.16c0-2.83-0.14-5.1-0.41-6.82c-0.27-1.71-0.68-3.07-1.21-4.06
				c-0.54-0.99-1.19-1.77-1.95-2.32c-0.76-0.56-2-1.05-3.7-1.48l-5.89-1.5l-12.07,47.49c-0.46,1.82-0.73,3.3-0.81,4.44
				c-0.07,1.13,0.02,2.07,0.27,2.81c0.26,0.74,0.69,1.38,1.32,1.91c0.62,0.54,1.64,1.17,3.07,1.89l-0.58,2.27l-21.19-5.39l0.58-2.27
				c0.98,0.02,1.86,0,2.63-0.07c0.77-0.07,1.43-0.22,1.97-0.46c0.54-0.24,1.03-0.6,1.46-1.09c0.43-0.48,0.86-1.18,1.27-2.1
				c0.41-0.92,0.86-2.3,1.33-4.16l12.07-47.49l-5.84-1.49c-1.45-0.37-2.69-0.53-3.7-0.5c-1.01,0.04-2.04,0.4-3.06,1.07
				c-1.03,0.68-2.08,1.74-3.16,3.2c-1.08,1.45-2.22,3.34-3.44,5.67l-4.59-1.17L-367.72,65.41z"/>
			<path d="M-268.98,102.46l-5.77,11.93l-4.27-2.06c0.52-2.83,0.6-5.24,0.25-7.24c-0.35-1.99-1.07-3.65-2.17-4.96
				c-1.1-1.31-2.64-2.45-4.63-3.4c-2.96-1.43-6.07-1.72-9.33-0.87c-3.26,0.85-6.51,2.93-9.74,6.24c-3.23,3.31-6.2,7.77-8.9,13.37
				c-2.72,5.63-4.5,10.7-5.33,15.2c-0.83,4.51-0.67,8.28,0.47,11.34c1.15,3.05,3.27,5.33,6.37,6.83c2.36,1.14,4.44,1.73,6.26,1.78
				s3.59-0.42,5.32-1.39s3.74-2.66,6.03-5.06l4.27,2.06l-5.95,12.32c-3.05-0.59-6.07-1.38-9.08-2.39s-6.2-2.33-9.59-3.97
				c-7.3-3.53-11.62-8.66-12.96-15.4c-1.35-6.74,0.35-15.01,5.08-24.81c2.97-6.15,6.54-11.06,10.71-14.75
				c4.17-3.69,8.75-5.89,13.74-6.6c4.98-0.71,10.09,0.2,15.32,2.72c2.61,1.26,4.96,2.56,7.04,3.91S-271.47,100.34-268.98,102.46z"/>
			<path d="M-249.78,181.69c-1.16,1.44-1.99,2.55-2.5,3.33s-0.85,1.46-1.02,2.03c-0.18,0.57-0.25,1.1-0.22,1.57
				c0.03,0.47,0.18,1.01,0.46,1.6c0.28,0.59,0.8,1.41,1.57,2.43l-1.47,1.83l-15.62-12.57l1.47-1.83c1.65,0.75,2.91,1.14,3.8,1.15
				s1.79-0.32,2.7-1.02c0.91-0.7,2.2-2.08,3.86-4.14l12.57-15.62l-20.72-16.68l-12.57,15.62c-1.34,1.67-2.26,2.93-2.77,3.79
				c-0.51,0.86-0.81,1.62-0.91,2.28c-0.1,0.66-0.01,1.34,0.25,2.05s0.86,1.67,1.76,2.89l-1.47,1.83l-15.69-12.63l1.47-1.83
				c1.86,0.84,3.25,1.23,4.16,1.17s1.81-0.48,2.69-1.24c0.88-0.76,2.06-2.07,3.54-3.91l25.96-32.24c1.38-1.71,2.32-3.01,2.83-3.9
				c0.5-0.88,0.79-1.66,0.85-2.32c0.06-0.66-0.03-1.32-0.3-1.96c-0.26-0.64-0.84-1.58-1.72-2.83l1.47-1.83l15.69,12.63l-1.47,1.83
				c-1.31-0.61-2.32-0.97-3.03-1.09c-0.71-0.12-1.37-0.09-1.98,0.09c-0.62,0.18-1.32,0.62-2.12,1.33s-1.88,1.92-3.27,3.64
				l-10.62,13.2l20.72,16.68l10.62-13.2c1.74-2.16,2.82-3.73,3.25-4.69c0.43-0.96,0.56-1.86,0.41-2.68
				c-0.16-0.82-0.81-2.02-1.96-3.6l1.47-1.83l15.62,12.57l-1.47,1.83c-1.67-0.77-2.96-1.16-3.85-1.17s-1.79,0.35-2.69,1.06
				c-0.9,0.71-2.17,2.08-3.81,4.12L-249.78,181.69z"/>
			<path d="M-243.86,205.06l1.95-1.31c1.53,1.36,2.74,2.14,3.63,2.35c0.89,0.21,1.87,0.08,2.94-0.39s2.58-1.36,4.54-2.68
				l34.34-23.11c1.83-1.23,3.11-2.19,3.86-2.88c0.74-0.69,1.25-1.35,1.5-1.96c0.26-0.62,0.36-1.27,0.3-1.96
				c-0.06-0.69-0.33-1.76-0.8-3.21l1.95-1.31l14.62,21.71c2.83,4.21,4.66,7.89,5.48,11.05c0.82,3.16,0.77,5.95-0.16,8.38
				c-0.92,2.43-2.77,4.58-5.55,6.45c-2.3,1.55-4.6,2.45-6.89,2.71c-2.29,0.25-4.47,0.04-6.55-0.64c-2.07-0.68-4.34-1.83-6.81-3.43
				l-0.36,0.24c1.34,4.33,1.5,8.18,0.48,11.56c-1.02,3.38-3.08,6.11-6.21,8.22c-3.6,2.42-7.08,3.6-10.43,3.53
				c-3.35-0.07-6.51-1.2-9.47-3.4c-2.96-2.2-5.82-5.35-8.58-9.45L-243.86,205.06z M-231.97,214.59c1.12,2.06,2.47,4.28,4.08,6.66
				c2.33,3.47,4.58,5.87,6.75,7.2c2.17,1.33,4.39,1.85,6.68,1.56c2.29-0.29,4.71-1.3,7.28-3.03c2.57-1.73,4.37-3.62,5.4-5.68
				c1.04-2.06,1.3-4.35,0.81-6.86c-0.5-2.51-1.91-5.49-4.22-8.93l-4.14-6.15L-231.97,214.59z M-201.17,203.95
				c2.71,4.02,5.75,6.44,9.13,7.27c3.38,0.82,6.92-0.01,10.63-2.51c1.83-1.23,3.14-2.55,3.94-3.95c0.8-1.41,1.21-2.87,1.22-4.4
				c0.01-1.53-0.31-3.11-0.97-4.74c-0.66-1.63-1.55-3.28-2.67-4.95c-0.68-1.01-1.59-2.31-2.75-3.92c-1.16-1.61-2.04-2.8-2.64-3.58
				l-20.56,13.84L-201.17,203.95z"/>
			<path d="M-208.4,269.69c-1.31-3.6-1.91-7.09-1.8-10.47c0.11-3.38,1.03-6.59,2.76-9.61c1.73-3.02,4.34-5.82,7.81-8.4
				c3.48-2.57,7.93-4.85,13.35-6.82c6.68-2.43,12.8-3.51,18.33-3.21c5.54,0.29,10.25,1.88,14.13,4.76
				c3.88,2.88,6.74,6.82,8.56,11.83c1.94,5.33,2.4,10.25,1.38,14.75c-1.03,4.5-3.49,8.5-7.39,12.01c-3.9,3.51-9.13,6.46-15.7,8.85
				c-7.01,2.55-13.32,3.66-18.91,3.32c-5.59-0.34-10.28-1.98-14.07-4.93C-203.72,278.8-206.54,274.78-208.4,269.69z M-181.64,243.18
				c-9.2,3.35-15.71,7.24-19.53,11.67c-3.82,4.43-4.79,9.22-2.91,14.38c1.19,3.27,3.24,5.66,6.15,7.18
				c2.91,1.52,6.58,2.12,11.02,1.79c4.43-0.32,9.33-1.46,14.7-3.42c6.53-2.38,11.71-5.02,15.53-7.92c3.81-2.9,6.28-5.86,7.38-8.88
				c1.11-3.02,1.1-6.06-0.01-9.11c-0.98-2.7-2.46-4.78-4.42-6.26c-1.96-1.47-4.34-2.43-7.13-2.85c-2.79-0.43-5.94-0.33-9.45,0.28
				C-173.81,240.67-177.59,241.71-181.64,243.18z"/>
			<path d="M-169.94,307.11l22.74-16.13c2.75-1.95,4.7-3.41,5.87-4.39c1.16-0.98,2.06-1.93,2.69-2.84c0.62-0.91,1.05-1.93,1.26-3.05
				l2.33-0.29l2.51,20.23l-2.33,0.29c-0.72-2.93-2.18-4.26-4.4-3.99c-0.92,0.11-1.92,0.46-3.01,1.02c-1.09,0.57-2.61,1.54-4.56,2.9
				l-16.91,11.74l17.69,7.3c2.41,0.99,4.36,1.65,5.87,2c1.5,0.34,2.86,0.44,4.06,0.29c1.14-0.14,1.99-0.59,2.56-1.35
				c0.56-0.76,0.83-1.81,0.79-3.16l2.33-0.29l2.23,18l-2.33,0.29c-0.64-1.24-1.43-2.3-2.39-3.17c-0.96-0.88-2.22-1.73-3.77-2.57
				c-1.55-0.84-4.14-2.03-7.77-3.57l-24.15-10.41l-15.39,1.91c-1.8,0.22-3.25,0.5-4.33,0.83c-1.08,0.33-1.93,0.75-2.54,1.28
				c-0.61,0.53-1.06,1.18-1.35,1.95c-0.29,0.77-0.51,1.96-0.67,3.55l-2.33,0.29l-2.69-21.7l2.33-0.29c0.5,1.48,0.98,2.56,1.44,3.25
				c0.45,0.68,1.05,1.2,1.79,1.56c0.74,0.36,1.67,0.57,2.8,0.64c1.13,0.07,2.62-0.01,4.45-0.24L-169.94,307.11z"/>
		</g>
		<g>
			<g id="_x3C_Radial_Repeat_x3E__18_">
				<polygon class="st3" points="-680.49,405.35 -666.71,391 -652.53,404.87 -666.23,421.51 				"/>
				<path class="st3" d="M-666.83,386.37"/>
			</g>
			<g id="_x3C_Radial_Repeat_x3E__17_">
				<polygon class="st3" points="-685.77,372.4 -671.43,386.18 -685.3,400.36 -701.94,386.66 				"/>
				<path class="st3" d="M-666.8,386.06"/>
			</g>
			<g id="_x3C_Radial_Repeat_x3E__16_">
				<polygon class="st3" points="-652.83,367.12 -666.61,381.47 -680.78,367.6 -667.08,350.96 				"/>
				<path class="st3" d="M-666.49,386.1"/>
			</g>
			<g id="_x3C_Radial_Repeat_x3E__2_">
				<polygon class="st3" points="-647.55,400.07 -661.89,386.29 -648.02,372.11 -631.38,385.81 				"/>
				<path class="st3" d="M-666.52,386.41"/>
			</g>
		</g>
		<g>
			<g id="_x3C_Radial_Repeat_x3E__15_">
				<polygon class="st3" points="-176.07,405.35 -162.29,391 -148.11,404.87 -161.81,421.51 				"/>
				<path class="st3" d="M-162.41,386.37"/>
			</g>
			<g id="_x3C_Radial_Repeat_x3E__14_">
				<polygon class="st3" points="-181.35,372.4 -167,386.18 -180.87,400.36 -197.51,386.66 				"/>
				<path class="st3" d="M-162.37,386.06"/>
			</g>
			<g id="_x3C_Radial_Repeat_x3E__13_">
				<polygon class="st3" points="-148.4,367.12 -162.18,381.47 -176.36,367.6 -162.66,350.96 				"/>
				<path class="st3" d="M-162.06,386.1"/>
			</g>
			<g id="_x3C_Radial_Repeat_x3E__4_">
				<polygon class="st3" points="-143.12,400.07 -157.47,386.29 -143.6,372.11 -126.96,385.81 				"/>
				<path class="st3" d="M-162.1,386.41"/>
			</g>
		</g>
		<path class="st8" d="M-580.53,565.62"/>
		<g id="XMLID_2_">
			<g>
				<polygon class="st1" points="-135.9,694.39 -163.25,719.12 -186.78,694.32 -163.25,669.67 				"/>
				<path class="st2" d="M-220.22,498.45c4.51,10.41,8.74,20.18,8.68,33.19c-0.03,5.91-0.94,10.64-4.09,21.7
					c-3.27,11.49-6.03,19.52-10.58,31.29c-1.09,2.8-2.27,5.81-3.58,9.13c-2.88,7.27-6.4,16.01-10.86,27.24
					c-2.22,5.6-4.01,10.11-6.36,14.53c-1.42,2.69-3.05,5.35-5.13,8.2c-4.91,6.75-10.77,14.81-21.7,19.15
					c-2.92,1.16-16.59,6.58-29.87-0.26c-10.53-5.42-14.71-15.4-16.6-19.91c-1.05-2.52-1.77-4.88-2.27-7.18
					c-0.91-4.17-1.11-8.14-1.3-12.48c-0.5-11.24,1.22-16.09,5.36-41.88c0.66-4.09,1.31-8.18,1.97-12.68
					c0.45-3.03,0.9-6.25,1.35-9.78c1.96-15.33,1.59-17.73,2.81-27.32c1.41-11.1,2.44-19.24,4.12-26.08
					c1.48-5.98,3.45-10.96,6.6-16.05c7.17-11.57,16.5-17.79,21.56-20.9c0.32-0.19,0.62-0.38,0.91-0.55c3.98-2.4,7.94-4.75,12.67-5.9
					c2-0.5,4.14-0.77,6.48-0.74c1,0.01,1.97,0.08,2.91,0.2c6.15,0.73,10.7,3.31,12.15,4.14c3.75,2.18,6.35,4.72,8.94,7.66
					C-226.82,483.7-221.76,494.9-220.22,498.45z M-246.46,601.36c0.83-2.55-0.16-5.35-2.39-6.83c-1.94-1.3-3.66-2.25-5.06-2.95
					c-5.77-2.9-10.97-4.01-17.25-5.34c-11.22-2.39-20.66-2.7-27.13-2.55c-0.35,0-0.86,0.01-1.45,0.12
					c-1.83,0.32-3.05,1.23-3.86,1.85c-0.9,0.69-1.64,1.45-2.23,2.2c-0.24,0.3-0.02,0.74,0.36,0.73c3.19-0.11,6.42-0.12,9.66-0.03
					c4.8,0.15,8.86,0.65,16.98,1.66c0,0,14.82,1.85,25.34,7.86c1.75,1,2.53,2.16,2.8,2.61c0.72,1.18,0.87,2.27,0.96,2.87
					c0.11,0.74,0.24,1.53,0.38,2.38c0.07,0.43,0.64,0.52,0.85,0.14c0.4-0.74,0.74-1.44,1.03-2.09
					C-247.09,603.12-246.75,602.24-246.46,601.36z"/>
				<path d="M-213.32,674.54v2.07c-0.78,0.12-1.42,0.29-1.93,0.51c-0.5,0.22-1.06,0.56-1.67,1.03c-0.6,0.47-1.33,1.18-2.16,2.11
					c-0.84,0.94-1.81,2.16-2.91,3.66l-12.44,16.87v8.57c0,1.1,0.05,1.94,0.13,2.51c0.09,0.58,0.25,1.04,0.48,1.39
					c0.23,0.36,0.51,0.64,0.84,0.86c0.34,0.22,0.8,0.42,1.39,0.6c0.59,0.17,1.39,0.31,2.41,0.42v2.06h-23.93v-2.06
					c1.18-0.15,2.13-0.34,2.84-0.56c0.71-0.23,1.23-0.57,1.58-1c0.35-0.44,0.57-1,0.67-1.68c0.1-0.67,0.16-1.52,0.16-2.54v-8.57
					l-11.75-17.87c-1.01-1.52-1.81-2.65-2.39-3.38c-0.66-0.85-1.23-1.46-1.71-1.84c-0.47-0.37-0.92-0.63-1.32-0.78
					c-0.4-0.15-0.97-0.25-1.69-0.31v-2.07h23.1v2.07c-2.22,0.21-3.33,1-3.33,2.37c0,0.54,0.18,1.19,0.54,1.94s0.94,1.75,1.75,3
					l7.33,11.75l7.93-11.47c0.78-1.15,1.32-2.1,1.63-2.86c0.3-0.76,0.45-1.51,0.45-2.26s-0.3-1.34-0.89-1.77
					c-0.59-0.43-1.42-0.66-2.49-0.7v-2.07H-213.32z"/>
				<path class="st1" d="M-213.89,341.59c0,43.93-15.2,85.63-43.22,119.58l-0.03,0.2c-0.94-0.12-1.91-0.19-2.91-0.2
					c-2.34-0.03-4.48,0.24-6.48,0.74c-0.87-14.96-5.51-22.44-10.56-26.44c-0.2-0.15-0.71-0.48-1.57-0.98v-0.01
					c-1.5-0.88-4.05-2.34-7.79-4.46c-16.82-9.57-22.65-11.76-31.83-19.06c-2.11-1.68-4.3-3.43-6.98-6.13
					c-0.76-0.77-1.49-1.53-2.18-2.3c5.01-4.6,9.24-9.21,12.79-13.53h58.53c-0.47-17.35-3.91-41.12-16.51-65.87
					c-10.66-20.94-24.89-36.72-39.3-48.5c-1.82-1.49-3.65-2.92-5.47-4.28l-0.02-0.03c2.65-1.99,4.37-5.16,4.37-8.73
					c0-5.38-3.91-9.86-9.05-10.75c1.38-2.88,2.1-5.87,2.1-8.93c0-23.5-42.75-42.55-95.5-42.55c-52.74,0-95.5,19.05-95.5,42.55
					c0,3.05,0.72,6.03,2.09,8.9c-5.25,0.79-9.28,5.32-9.28,10.78c0,3.52,1.67,6.66,4.26,8.65c-1.54,1.16-3.09,2.36-4.63,3.6
					c-14.74,11.86-29.37,27.88-40.27,49.29c-12.6,24.75-16.04,48.52-16.51,65.87h59.29c3.15,3.98,7.28,8.73,12.53,13.7
					c-0.66,0.71-1.32,1.42-2.03,2.13c-2.69,2.7-4.87,4.45-6.98,6.13c-9.18,7.3-15.01,9.49-31.83,19.06
					c-3.63,2.06-6.14,3.49-7.65,4.38c-0.94,0.56-1.5,0.91-1.71,1.07c-5.07,4.01-9.73,11.53-10.57,26.58
					c-2.17-0.58-4.49-0.91-7.05-0.88c-1.15,0.02-2.27,0.1-3.33,0.26c-28.16-34-43.44-75.8-43.44-119.84
					c0-51.66,21.02-100.22,59.2-136.75c38.17-36.53,88.92-56.65,142.91-56.65s104.74,20.12,142.91,56.65
					C-234.91,241.37-213.89,289.93-213.89,341.59z"/>
				<path d="M-248.85,594.53c2.23,1.48,3.22,4.28,2.39,6.83c-0.29,0.88-0.63,1.76-1.01,2.63c-0.29,0.65-0.63,1.35-1.03,2.09
					c-0.21,0.38-0.78,0.29-0.85-0.14c-0.14-0.85-0.27-1.64-0.38-2.38c-0.09-0.6-0.24-1.69-0.96-2.87c-0.27-0.45-1.05-1.61-2.8-2.61
					c-10.52-6.01-25.34-7.86-25.34-7.86c-8.12-1.01-12.18-1.51-16.98-1.66c-3.24-0.09-6.47-0.08-9.66,0.03
					c-0.38,0.01-0.6-0.43-0.36-0.73c0.59-0.75,1.33-1.51,2.23-2.2c0.81-0.62,2.03-1.53,3.86-1.85c0.59-0.11,1.1-0.12,1.45-0.12
					c6.47-0.15,15.91,0.16,27.13,2.55c6.28,1.33,11.48,2.44,17.25,5.34C-252.51,592.28-250.79,593.23-248.85,594.53z"/>
				<path class="st2" d="M-256.12,389h-58.53h-0.76c-1.57-13.88-5.5-30.74-14.58-48c-6.27-11.93-13.96-22.06-22.37-30.65
					c15.67-8.87,29.49-21.01,40.43-35.72c14.41,11.78,28.64,27.56,39.3,48.5C-260.03,347.88-256.59,371.65-256.12,389z"/>
				<path d="M-278.48,715.14v2.06h-15.98c-1.6-1.67-3.42-4.15-5.44-7.44l-3.23-5.34c-0.97-1.58-1.8-2.71-2.49-3.38
					c-0.7-0.66-1.41-1.12-2.14-1.37c-0.73-0.25-1.86-0.38-3.38-0.38h-2.41v10.07c0,1.56,0.1,2.65,0.29,3.28
					c0.19,0.62,0.57,1.12,1.12,1.5c0.55,0.37,1.58,0.71,3.07,1v2.06h-21.79v-2.06c1.03-0.21,1.83-0.43,2.43-0.67
					c0.59-0.24,1.04-0.58,1.33-1c0.29-0.43,0.48-0.97,0.56-1.63c0.08-0.66,0.12-1.48,0.12-2.48v-26.94c0-0.98-0.03-1.8-0.1-2.47
					c-0.07-0.67-0.25-1.21-0.54-1.62c-0.29-0.42-0.73-0.76-1.33-1.02c-0.59-0.26-1.42-0.49-2.47-0.7v-2.07h24.2
					c3.26,0,6.04,0.18,8.32,0.52s4.28,0.87,6,1.58c1.44,0.58,2.66,1.32,3.65,2.2c1,0.89,1.77,1.92,2.3,3.09
					c0.54,1.18,0.81,2.55,0.81,4.11c0,2.05-0.47,3.8-1.43,5.25c-0.95,1.46-2.24,2.68-3.86,3.64c-1.62,0.97-3.78,1.89-6.49,2.74v0.31
					c2.04,0.67,3.74,1.56,5.08,2.67c1.34,1.12,2.55,2.53,3.63,4.24l2.62,4.25c1.16,1.89,2.31,3.32,3.46,4.26
					C-281.42,714.35-280.06,714.93-278.48,715.14z M-298.8,690.26c0.32-1.08,0.48-2.27,0.48-3.56c0-2.83-0.88-4.96-2.65-6.37
					c-1.78-1.42-4.4-2.13-7.89-2.13c-2.38,0-3.94,0.02-4.69,0.06v17.38h4.11c2.21,0,4.04-0.23,5.48-0.67
					c1.44-0.45,2.58-1.08,3.42-1.88C-299.7,692.29-299.11,691.35-298.8,690.26z"/>
				<path d="M-278.66,434.48L-278.66,434.48l-1.45,33.88c-5.06,3.11-14.39,9.33-21.56,20.9c-3.15,5.09-5.12,10.07-6.6,16.05
					c-1.68,6.84-2.71,14.98-4.12,26.08c-1.22,9.59-0.85,11.99-2.81,27.32c-0.45,3.53-0.9,6.75-1.35,9.78h-34.63l3.36-32.94
					l12.93-126.66c2.65-2.09,5.14-4.22,7.45-6.36c0.69,0.77,1.42,1.53,2.18,2.3c2.68,2.7,4.87,4.45,6.98,6.13
					c9.18,7.3,15.01,9.49,31.83,19.06C-282.71,432.14-280.16,433.6-278.66,434.48z"/>
				<path d="M-352.36,310.35c-18.1,10.24-38.67,16.11-60.09,16.52c-23.48,0.45-46.23-5.69-66.05-17.13
					c-15.3-8.84-28.86-20.83-39.64-35.38l-0.42-0.52c1.54-1.24,3.09-2.44,4.63-3.6h0.01c1.84,1.43,4.15,2.27,6.65,2.27
					c1.19,0,2.33-0.19,3.4-0.54l0.14,0.42c20.52,11.85,51.37,24.46,89.9,24.01c35.17-0.41,64.16-11.58,86.11-24.55h0.01
					c1.17,0.43,2.43,0.66,3.74,0.66c2.45,0,4.73-0.81,6.55-2.19l0.02,0.03c1.82,1.36,3.65,2.79,5.47,4.28
					C-322.87,289.34-336.69,301.48-352.36,310.35z"/>
				<path class="st3" d="M-351.18,568.49h34.63c-0.66,4.5-1.31,8.59-1.97,12.68c-4.14,25.79-5.86,30.64-5.36,41.88
					c0.19,4.34,0.39,8.31,1.3,12.48h-186.24c0.92-4.17,1.12-8.14,1.31-12.48c0.5-11.24-1.22-16.09-5.36-41.88
					c-0.66-4.09-1.31-8.18-1.98-12.68h0.01h34.42l-3.42-32.94h136.02L-351.18,568.49z"/>
				<path class="st3" d="M-320,241.91c0,3.06-0.72,6.05-2.1,8.93c-0.61-0.11-1.23-0.16-1.87-0.16c-6.03,0-10.91,4.89-10.91,10.91
					c0,0.99,0.13,1.96,0.38,2.88c-16.88,12.01-46.85,19.99-81,19.99c-34.29,0-64.36-8.05-81.2-20.14c0.22-0.88,0.34-1.79,0.34-2.73
					c0-6.02-4.88-10.91-10.91-10.91c-0.56,0-1.11,0.04-1.64,0.13c-1.37-2.87-2.09-5.85-2.09-8.9c0-23.5,42.76-42.55,95.5-42.55
					C-362.75,199.36-320,218.41-320,241.91z"/>
				<path class="st1" d="M-354.19,364.12c5.94,0,10.76,4.82,10.76,10.77c0,5.94-4.82,10.76-10.76,10.76c-2.62,0-5.02-0.94-6.89-2.49
					c-2.37-1.98-3.88-4.95-3.88-8.27C-364.96,368.94-360.14,364.12-354.19,364.12z"/>
				<path d="M-350.23,705.79l-0.89,11.41h-45.65v-2.06c1.15-0.21,2.06-0.43,2.72-0.67c0.67-0.24,1.16-0.58,1.49-1
					c0.32-0.43,0.53-0.97,0.62-1.63c0.1-0.66,0.14-1.48,0.14-2.48v-26.94c0-0.98-0.04-1.8-0.11-2.47c-0.08-0.67-0.28-1.21-0.61-1.62
					c-0.32-0.42-0.82-0.76-1.48-1.02c-0.67-0.26-1.59-0.49-2.77-0.7v-2.07h46.07v9.94h-6.36c-1.02-1.98-1.89-3.32-2.6-4.01
					c-0.71-0.7-1.57-1.25-2.56-1.66s-2.67-0.61-5.06-0.61h-10.12v15h6.13c1.36,0,2.43-0.13,3.2-0.39c0.78-0.26,1.42-0.69,1.93-1.3
					c0.51-0.6,1-1.54,1.46-2.81h5.25v12.69h-5.25c-0.43-1.21-0.91-2.13-1.44-2.77c-0.52-0.63-1.15-1.09-1.88-1.36
					s-1.82-0.4-3.27-0.4h-6.13v16.68h10.08c1.08,0,1.99-0.04,2.74-0.14c0.74-0.09,1.4-0.25,1.99-0.48c0.59-0.23,1.16-0.54,1.7-0.94
					c0.54-0.39,1.02-0.82,1.44-1.28c0.42-0.46,0.86-1.06,1.32-1.81c0.47-0.75,0.98-1.78,1.53-3.1H-350.23z"/>
				<path d="M-385.87,334.06c5.55,0,10.05,4.5,10.05,10.06c0,5.55-4.5,10.05-10.05,10.05c-5.55,0-10.06-4.5-10.06-10.05
					C-395.93,338.56-391.42,334.06-385.87,334.06z"/>
				<circle cx="-416" cy="466.33" r="10.05"/>
				<path d="M-416,495.21c5.55,0,10.05,4.5,10.05,10.06c0,5.55-4.5,10.05-10.05,10.05s-10.05-4.5-10.05-10.05
					C-426.05,499.71-421.55,495.21-416,495.21z"/>
				<path d="M-415.47,715.17v2.03h-22.28v-2.06c0.93-0.11,1.56-0.28,1.89-0.52c0.33-0.24,0.5-0.55,0.5-0.95
					c0-0.33-0.07-0.66-0.19-0.99c-0.12-0.32-0.42-0.79-0.88-1.42c-0.47-0.62-1.41-1.77-2.84-3.43l-6.29-7.38
					c-0.77-0.9-1.43-1.59-1.99-2.09s-1.13-0.86-1.69-1.08c-0.56-0.22-1.33-0.33-2.32-0.33h-0.82v12.41c0,0.73,0.02,1.4,0.08,2.03
					c0.05,0.62,0.16,1.13,0.33,1.53c0.16,0.4,0.4,0.73,0.72,1c0.31,0.27,0.74,0.5,1.29,0.7c0.55,0.2,1.22,0.37,2.02,0.52v2.06
					h-21.58v-2.06c1.01-0.21,1.81-0.43,2.4-0.67c0.59-0.24,1.03-0.58,1.32-1c0.28-0.43,0.47-0.97,0.55-1.63
					c0.08-0.66,0.12-1.48,0.12-2.48v-26.94c0-0.98-0.03-1.8-0.1-2.47c-0.07-0.67-0.24-1.21-0.53-1.62
					c-0.29-0.42-0.73-0.76-1.32-1.02c-0.59-0.26-1.4-0.49-2.44-0.7v-2.07h21.58v2.07c-1.15,0.23-2,0.48-2.53,0.75
					c-0.54,0.27-0.93,0.59-1.19,0.97c-0.26,0.37-0.45,0.85-0.56,1.43c-0.11,0.59-0.16,1.47-0.16,2.66v11.12h0.86
					c1.26,0,2.26-0.1,3-0.31c0.74-0.21,1.5-0.58,2.28-1.12c0.78-0.54,2.29-1.81,4.53-3.8c2.23-1.99,3.84-3.52,4.85-4.59
					c1-1.08,1.68-1.96,2.05-2.66s0.56-1.39,0.56-2.08c0-0.73-0.33-1.3-0.97-1.72c-0.64-0.41-1.56-0.63-2.73-0.65v-2.07h21v2.13
					c-1.04,0.15-1.93,0.36-2.67,0.66c-0.74,0.29-1.59,0.76-2.55,1.42c-0.96,0.65-2.18,1.62-3.66,2.89l-12.33,10.5l14.35,16.75
					c1.07,1.25,1.96,2.24,2.69,2.98c0.73,0.74,1.36,1.32,1.91,1.74c0.55,0.41,1.09,0.73,1.62,0.95
					C-417.05,714.78-416.35,714.98-415.47,715.17z"/>
				<path d="M-445.28,334.06c5.56,0,10.06,4.5,10.06,10.06c0,5.55-4.5,10.05-10.06,10.05c-5.55,0-10.05-4.5-10.05-10.05
					C-455.33,338.56-450.83,334.06-445.28,334.06z"/>
				<path class="st1" d="M-477.25,364.12c5.94,0,10.76,4.82,10.76,10.77c0,3.23-1.42,6.12-3.67,8.09c-1.89,1.66-4.38,2.67-7.09,2.67
					c-5.95,0-10.77-4.82-10.77-10.76C-488.02,368.94-483.2,364.12-477.25,364.12z"/>
				<path d="M-483.84,535.55l3.42,32.94h-34.42h-0.01c-0.44-3.03-0.89-6.25-1.34-9.78c-1.97-15.33-1.59-17.73-2.81-27.32
					c-2.65-20.83-3.97-31.24-10.72-42.13c-6.84-11.03-15.64-17.2-20.82-20.43l-1.47-34.43c1.51-0.89,4.02-2.32,7.65-4.38
					c16.82-9.57,22.65-11.76,31.83-19.06c2.11-1.68,4.29-3.43,6.98-6.13c0.71-0.71,1.37-1.42,2.03-2.13c2,1.88,4.16,3.79,6.49,5.7
					L-483.84,535.55z"/>
				<path class="st2" d="M-478.5,309.74c-8.65,8.72-16.54,19.05-22.97,31.26c-9.08,17.26-13.01,34.12-14.58,48h-59.29
					c0.47-17.35,3.91-41.12,16.51-65.87c10.9-21.41,25.53-37.43,40.27-49.29l0.42,0.52C-507.36,288.91-493.8,300.9-478.5,309.74z"/>
				<path d="M-493.47,715.14v2.06h-23.31v-2.06c1.47-0.13,2.55-0.43,3.25-0.91c0.71-0.48,1.06-1.15,1.06-2.03
					c0-0.65-0.1-1.36-0.3-2.16c-0.19-0.79-0.52-1.79-0.97-3l-1.14-3.06h-18.03l-1.39,2.97c-0.4,0.83-0.72,1.64-0.97,2.42
					c-0.26,0.78-0.38,1.61-0.38,2.49c0,2.04,1.46,3.13,4.39,3.28v2.06h-18.03v-2.06c1.04-0.09,1.95-0.36,2.74-0.81
					c0.79-0.46,1.51-1.09,2.16-1.88c0.64-0.79,1.33-1.93,2.06-3.41l17.61-34.71h11.28l13.93,35c0.62,1.56,1.14,2.67,1.57,3.32
					c0.42,0.66,0.97,1.19,1.64,1.6C-495.62,714.65-494.68,714.95-493.47,715.14z M-516.1,700.33l-6.76-17.6l-8.44,17.6H-516.1z"/>
				<path class="st2" d="M-512.87,581.17c4.14,25.79,5.86,30.64,5.36,41.88c-0.19,4.34-0.39,8.31-1.31,12.48
					c-0.5,2.3-1.22,4.66-2.27,7.18c-1.88,4.51-6.06,14.49-16.59,19.91c-13.28,6.84-26.95,1.42-29.87,0.26
					c-10.93-4.34-16.8-12.4-21.71-19.15c-2.07-2.85-3.71-5.51-5.13-8.2c-2.35-4.42-4.13-8.93-6.35-14.53
					c-4.46-11.22-7.97-19.95-10.85-27.21c-1.21-3.06-2.31-5.87-3.33-8.49c-4.71-12.13-7.51-20.25-10.85-31.96
					c-3.15-11.06-4.05-15.79-4.08-21.7c-0.06-13.01,4.17-22.78,8.68-33.19c1.54-3.55,6.59-14.75,15.83-25.28
					c2.59-2.94,5.19-5.48,8.94-7.66c1.41-0.81,5.79-3.29,11.73-4.08c1.06-0.16,2.18-0.24,3.33-0.26c2.56-0.03,4.88,0.3,7.05,0.88
					c4.48,1.19,8.28,3.45,12.1,5.76c0.5,0.3,1.05,0.64,1.65,1.02c5.18,3.23,13.98,9.4,20.82,20.43c6.75,10.89,8.07,21.3,10.72,42.13
					c1.22,9.59,0.84,11.99,2.81,27.32c0.45,3.53,0.9,6.75,1.34,9.78C-514.18,572.99-513.53,577.08-512.87,581.17z M-526.45,588.24
					c0.39,0.01,0.61-0.43,0.37-0.73c-0.6-0.75-1.34-1.51-2.24-2.2c-0.81-0.62-2.03-1.53-3.86-1.85c-0.59-0.11-1.1-0.12-1.45-0.12
					c-6.47-0.15-15.91,0.16-27.13,2.55c-6.28,1.33-11.48,2.44-17.25,5.33c-1.4,0.71-3.12,1.66-5.06,2.95
					c-2.23,1.49-3.22,4.29-2.38,6.83c0.29,0.89,0.62,1.77,1.01,2.64c0.28,0.65,0.62,1.35,1.03,2.09c0.2,0.38,0.77,0.29,0.84-0.14
					c0.15-0.86,0.27-1.65,0.38-2.38c0.09-0.6,0.24-1.69,0.96-2.87c0.27-0.45,1.05-1.61,2.81-2.62c10.51-6,25.34-7.85,25.34-7.85
					c8.12-1.01,12.18-1.51,16.97-1.66C-532.87,588.12-529.64,588.13-526.45,588.24z"/>
				<path d="M-526.08,587.51c0.24,0.3,0.02,0.74-0.37,0.73c-3.19-0.11-6.42-0.12-9.66-0.03c-4.79,0.15-8.85,0.65-16.97,1.66
					c0,0-14.83,1.85-25.34,7.85c-1.76,1.01-2.54,2.17-2.81,2.62c-0.72,1.18-0.87,2.27-0.96,2.87c-0.11,0.73-0.23,1.52-0.38,2.38
					c-0.07,0.43-0.64,0.52-0.84,0.14c-0.41-0.74-0.75-1.44-1.03-2.09c-0.39-0.87-0.72-1.75-1.01-2.64
					c-0.84-2.54,0.15-5.34,2.38-6.83c1.94-1.29,3.66-2.24,5.06-2.95c5.77-2.89,10.97-4,17.25-5.33c11.22-2.39,20.66-2.7,27.13-2.55
					c0.35,0,0.86,0.01,1.45,0.12c1.83,0.32,3.05,1.23,3.86,1.85C-527.42,586-526.68,586.76-526.08,587.51z"/>
				<path d="M-569.59,698.84c2.07,1.74,3.1,3.83,3.1,6.27c0,2.08-0.47,3.89-1.41,5.43c-0.95,1.55-2.38,2.81-4.31,3.8
					c-1.92,0.99-4.19,1.71-6.79,2.17c-2.6,0.46-5.92,0.69-9.94,0.69h-25.99v-2.06c1.04-0.21,1.86-0.43,2.46-0.67
					c0.61-0.24,1.06-0.58,1.35-1c0.3-0.43,0.49-0.97,0.57-1.63c0.09-0.66,0.13-1.48,0.13-2.48v-26.94c0-0.98-0.03-1.8-0.1-2.47
					s-0.26-1.21-0.55-1.62c-0.3-0.42-0.75-0.76-1.35-1.02c-0.61-0.26-1.45-0.49-2.51-0.7v-2.07h27.64c3.15,0,5.72,0.12,7.72,0.35
					c2.64,0.31,4.94,0.85,6.88,1.62c1.74,0.69,3.11,1.67,4.09,2.94c0.99,1.27,1.48,2.78,1.48,4.53c0,4.71-3.83,8.24-11.48,10.6v0.28
					C-574.66,695.77-571.66,697.1-569.59,698.84z M-579.53,705.23c0-1.5-0.25-2.78-0.76-3.86c-0.5-1.07-1.26-1.94-2.28-2.59
					c-1.01-0.66-2.22-1.14-3.63-1.44c-1.4-0.3-3.16-0.45-5.27-0.45h-5.87v16.56c1.66,0.06,3.58,0.09,5.74,0.09
					c2.67,0,4.88-0.24,6.61-0.73s3.07-1.34,4.03-2.56C-580.01,709.03-579.53,707.36-579.53,705.23z M-581.45,689.75
					c0.83-1.12,1.25-2.65,1.25-4.61c0-1.73-0.45-3.1-1.35-4.11c-0.91-1.01-2.19-1.74-3.84-2.17c-1.66-0.44-3.73-0.66-6.21-0.66
					c-1.97,0-3.88,0.05-5.74,0.16v14.87h5.62c2.81,0,5.02-0.3,6.62-0.9C-583.5,691.72-582.28,690.86-581.45,689.75z"/>
				<polygon class="st1" points="-666.09,669.65 -642.32,694.21 -665.6,719.1 -693.2,694.65 				"/>
			</g>
			<g>
				<path class="st4" d="M-574.67,461.43c-28.16-34-43.44-75.8-43.44-119.84c0-51.66,21.02-100.22,59.2-136.75
					c38.17-36.53,88.92-56.65,142.91-56.65s104.74,20.12,142.91,56.65c38.18,36.53,59.2,85.09,59.2,136.75
					c0,43.93-15.2,85.63-43.22,119.58"/>
				<path class="st5" d="M-503.51,402.69l-0.01,0.01c-0.66,0.71-1.32,1.42-2.03,2.13c-2.69,2.7-4.87,4.45-6.98,6.13
					c-9.18,7.3-15.01,9.49-31.83,19.06c-3.63,2.06-6.14,3.49-7.65,4.38c-0.94,0.56-1.5,0.91-1.71,1.07
					c-5.07,4.01-9.73,11.53-10.57,26.58"/>
				<path class="st5" d="M-278.66,434.49c0.86,0.5,1.37,0.83,1.57,0.98c5.05,4,9.69,11.48,10.56,26.44"/>
				<path class="st5" d="M-327.44,402.53c0.69,0.77,1.42,1.53,2.18,2.3c2.68,2.7,4.87,4.45,6.98,6.13
					c9.18,7.3,15.01,9.49,31.83,19.06c3.74,2.12,6.29,3.58,7.79,4.46"/>
				<line class="st5" x1="-552.01" y1="434.4" x2="-550.54" y2="468.83"/>
				<polyline class="st5" points="-278.66,434.48 -278.66,434.49 -280.11,468.36 				"/>
				<path class="st4" d="M-604.93,585.3c-72.66-56.41-119.42-144.6-119.42-243.71c0-170.29,138.06-308.34,308.35-308.34
					s308.35,138.05,308.35,308.34c0,98.72-46.39,186.6-118.56,243.04"/>
				<path class="st6" d="M-513.92,270.24c1.84,1.43,4.15,2.27,6.65,2.27c1.19,0,2.33-0.19,3.4-0.54c3.52-1.16,6.24-4.04,7.17-7.65
					c0.22-0.88,0.34-1.79,0.34-2.73c0-6.02-4.88-10.91-10.91-10.91c-0.56,0-1.11,0.04-1.64,0.13c-5.25,0.79-9.28,5.32-9.28,10.78
					c0,3.52,1.67,6.66,4.26,8.65"/>
				<path class="st6" d="M-327.71,271.85c1.17,0.43,2.43,0.66,3.74,0.66c2.45,0,4.73-0.81,6.55-2.19c2.65-1.99,4.37-5.16,4.37-8.73
					c0-5.38-3.91-9.86-9.05-10.75c-0.61-0.11-1.23-0.16-1.87-0.16c-6.03,0-10.91,4.89-10.91,10.91c0,0.99,0.13,1.96,0.38,2.88
					c0.93,3.42,3.48,6.17,6.78,7.38"/>
				<path class="st6" d="M-496.7,264.32c16.84,12.09,46.91,20.14,81.2,20.14c34.15,0,64.12-7.98,81-19.99"/>
				<path class="st6" d="M-322.1,250.84c1.38-2.88,2.1-5.87,2.1-8.93c0-23.5-42.75-42.55-95.5-42.55c-52.74,0-95.5,19.05-95.5,42.55
					c0,3.05,0.72,6.03,2.09,8.9"/>
				<path class="st6" d="M-513.92,270.24h-0.01c-1.54,1.16-3.09,2.36-4.63,3.6c-14.74,11.86-29.37,27.88-40.27,49.29
					c-12.6,24.75-16.04,48.52-16.51,65.87h59.29c1.57-13.88,5.5-30.74,14.58-48c6.43-12.21,14.32-22.54,22.97-31.26"/>
				<path class="st6" d="M-352.54,310.16c0.06,0.06,0.12,0.13,0.18,0.19c8.41,8.59,16.1,18.72,22.37,30.65
					c9.08,17.26,13.01,34.12,14.58,48h0.76h58.53c-0.47-17.35-3.91-41.12-16.51-65.87c-10.66-20.94-24.89-36.72-39.3-48.5
					c-1.82-1.49-3.65-2.92-5.47-4.28"/>
				<path class="st6" d="M-518.14,274.36c10.78,14.55,24.34,26.54,39.64,35.38c19.82,11.44,42.57,17.58,66.05,17.13
					c21.42-0.41,41.99-6.28,60.09-16.52c15.67-8.87,29.49-21.01,40.43-35.72"/>
				<path class="st6" d="M-503.73,272.39c20.52,11.85,51.37,24.46,89.9,24.01c35.17-0.41,64.16-11.58,86.11-24.55h0.01"/>
				<path class="st6" d="M-340.73,413.25c2.03-1.42,3.98-2.88,5.84-4.36c2.65-2.09,5.14-4.22,7.45-6.36
					c5.01-4.6,9.24-9.21,12.79-13.53"/>
				<path class="st6" d="M-516.05,389c3.15,3.98,7.28,8.73,12.53,13.7c2,1.88,4.16,3.79,6.49,5.7c2.44,2.02,5.07,4.03,7.9,6
					c0.89,0.62,1.78,1.23,2.68,1.82c30.87,20.39,61.93,21.29,70.73,21.29c0.4,0,0.88,0,1.42-0.01c9.7-0.12,40.96-1.87,72.11-23.22
					c0.49-0.33,0.97-0.67,1.45-1.02"/>
				<polyline class="st6" points="-334.89,408.89 -347.82,535.55 -351.18,568.49 -316.55,568.49 				"/>
				<polyline class="st6" points="-514.84,568.49 -480.42,568.49 -483.84,535.55 -497.03,408.4 				"/>
				<line class="st6" x1="-483.84" y1="535.55" x2="-347.82" y2="535.55"/>
				<polyline class="st6" points="-486.45,416.22 -465.13,462.05 -415.01,437.84 -414.3,437.5 -414.01,437.36 				"/>
				<polyline class="st6" points="-415.72,437.51 -415.01,437.84 -363.94,462.05 -340.74,413.26 -340.73,413.25 				"/>
				<circle class="st6" cx="-416" cy="466.33" r="10.05"/>
				<path class="st7" d="M-445.28,334.06c-5.55,0-10.05,4.5-10.05,10.06c0,5.55,4.5,10.05,10.05,10.05c5.56,0,10.06-4.5,10.06-10.05
					C-435.22,338.56-439.72,334.06-445.28,334.06z"/>
				<path class="st7" d="M-385.87,334.06c-5.55,0-10.06,4.5-10.06,10.06c0,5.55,4.51,10.05,10.06,10.05
					c5.55,0,10.05-4.5,10.05-10.05C-375.82,338.56-380.32,334.06-385.87,334.06z"/>
				<path class="st6" d="M-416,495.21c-5.55,0-10.05,4.5-10.05,10.06c0,5.55,4.5,10.05,10.05,10.05s10.05-4.5,10.05-10.05
					C-405.95,499.71-410.45,495.21-416,495.21z"/>
				<path class="st6" d="M-477.25,364.12c-5.95,0-10.77,4.82-10.77,10.77c0,5.94,4.82,10.76,10.77,10.76c2.71,0,5.2-1.01,7.09-2.67
					c2.25-1.97,3.67-4.86,3.67-8.09C-466.49,368.94-471.31,364.12-477.25,364.12z"/>
				<path class="st6" d="M-354.19,364.12c-5.95,0-10.77,4.82-10.77,10.77c0,3.32,1.51,6.29,3.88,8.27c1.87,1.55,4.27,2.49,6.89,2.49
					c5.94,0,10.76-4.82,10.76-10.76C-343.43,368.94-348.25,364.12-354.19,364.12z"/>
				<path class="st6" d="M-470.16,382.98c9.52,9.45,28.23,23.54,55.07,23.38c26.26-0.15,44.56-13.85,54.01-23.2"/>
				<path class="st4" d="M-604.92,585.3c-4.71-12.13-7.51-20.25-10.85-31.96c-3.15-11.06-4.05-15.79-4.08-21.7
					c-0.06-13.01,4.17-22.78,8.68-33.19c1.54-3.55,6.59-14.75,15.83-25.28c2.59-2.94,5.19-5.48,8.94-7.66
					c1.41-0.81,5.79-3.29,11.73-4.08c1.06-0.16,2.18-0.24,3.33-0.26c2.56-0.03,4.88,0.3,7.05,0.88c4.48,1.19,8.28,3.45,12.1,5.76
					c0.5,0.3,1.05,0.64,1.65,1.02c5.18,3.23,13.98,9.4,20.82,20.43c6.75,10.89,8.07,21.3,10.72,42.13
					c1.22,9.59,0.84,11.99,2.81,27.32c0.45,3.53,0.9,6.75,1.34,9.78c0.67,4.5,1.32,8.59,1.98,12.68
					c4.14,25.79,5.86,30.64,5.36,41.88c-0.19,4.34-0.39,8.31-1.31,12.48c-0.5,2.3-1.22,4.66-2.27,7.18
					c-1.88,4.51-6.06,14.49-16.59,19.91c-13.28,6.84-26.95,1.42-29.87,0.26c-10.93-4.34-16.8-12.4-21.71-19.15
					c-2.07-2.85-3.71-5.51-5.13-8.2c-2.35-4.42-4.13-8.93-6.35-14.53c-4.46-11.22-7.97-19.95-10.85-27.21
					C-602.8,590.73-603.9,587.92-604.92,585.3z"/>
				<path class="st4" d="M-308.27,505.31c1.48-5.98,3.45-10.96,6.6-16.05c7.17-11.57,16.5-17.79,21.56-20.9
					c0.32-0.19,0.62-0.38,0.91-0.55c3.98-2.4,7.94-4.75,12.67-5.9c2-0.5,4.14-0.77,6.48-0.74c1,0.01,1.97,0.08,2.91,0.2
					c6.15,0.73,10.7,3.31,12.15,4.14c3.75,2.18,6.35,4.72,8.94,7.66c9.23,10.53,14.29,21.73,15.83,25.28
					c4.51,10.41,8.74,20.18,8.68,33.19c-0.03,5.91-0.94,10.64-4.09,21.7c-3.27,11.49-6.03,19.52-10.58,31.29
					c-1.09,2.8-2.27,5.81-3.58,9.13c-2.88,7.27-6.4,16.01-10.86,27.24c-2.22,5.6-4.01,10.11-6.36,14.53
					c-1.42,2.69-3.05,5.35-5.13,8.2c-4.91,6.75-10.77,14.81-21.7,19.15c-2.92,1.16-16.59,6.58-29.87-0.26
					c-10.53-5.42-14.71-15.4-16.6-19.91c-1.05-2.52-1.77-4.88-2.27-7.18c-0.91-4.17-1.11-8.14-1.3-12.48
					c-0.5-11.24,1.22-16.09,5.36-41.88c0.66-4.09,1.31-8.18,1.97-12.68c0.45-3.03,0.9-6.25,1.35-9.78
					c1.96-15.33,1.59-17.73,2.81-27.32C-310.98,520.29-309.95,512.15-308.27,505.31"/>
				<path class="st4" d="M-247.01,635.53h82.72h0.64c32.46,0,58.78,26.32,58.78,58.78c0,16.23-6.58,30.93-17.22,41.56
					c-10.63,10.64-25.33,17.22-41.56,17.22h-503.64c-32.46,0-58.77-26.32-58.77-58.78c0-16.23,6.58-30.93,17.21-41.56
					c10.64-10.64,25.33-17.22,41.56-17.22h0.42h82.48"/>
				<line class="st4" x1="-508.82" y1="635.53" x2="-322.58" y2="635.53"/>
				<path class="st4" d="M-666.87,635.53c0.03-2.11,0.25-4.44,0.81-6.91c0.52-2.34,1.77-6.7,4.85-11.24
					c4.7-6.93,10.9-10.21,14.04-11.87c7.91-4.18,23.94-8.59,45.58-11.72"/>
				<path class="st4" d="M-164.29,635.53c-0.02-2.11-0.24-4.44-0.8-6.91c-0.53-2.34-1.77-6.7-4.85-11.24
					c-4.7-6.93-10.91-10.21-14.04-11.87c-7.95-4.2-24.05-8.62-45.81-11.75"/>
				<path class="st8" d="M-533.63,583.34c0.35,0,0.86,0.01,1.45,0.12c1.83,0.32,3.05,1.23,3.86,1.85c0.9,0.69,1.64,1.45,2.24,2.2
					c0.24,0.3,0.02,0.74-0.37,0.73c-3.19-0.11-6.42-0.12-9.66-0.03c-4.79,0.15-8.85,0.65-16.97,1.66c0,0-14.83,1.85-25.34,7.85
					c-1.76,1.01-2.54,2.17-2.81,2.62c-0.72,1.18-0.87,2.27-0.96,2.87c-0.11,0.73-0.23,1.52-0.38,2.38
					c-0.07,0.43-0.64,0.52-0.84,0.14c-0.41-0.74-0.75-1.44-1.03-2.09c-0.39-0.87-0.72-1.75-1.01-2.64
					c-0.84-2.54,0.15-5.34,2.38-6.83c1.94-1.29,3.66-2.24,5.06-2.95c5.77-2.89,10.97-4,17.25-5.33
					C-549.54,583.5-540.1,583.19-533.63,583.34z"/>
				<path class="st8" d="M-298.29,583.69c-0.35,0-0.86,0.01-1.45,0.12c-1.83,0.32-3.05,1.23-3.86,1.85c-0.9,0.69-1.64,1.45-2.23,2.2
					c-0.24,0.3-0.02,0.74,0.36,0.73c3.19-0.11,6.42-0.12,9.66-0.03c4.8,0.15,8.86,0.65,16.98,1.66c0,0,14.82,1.85,25.34,7.86
					c1.75,1,2.53,2.16,2.8,2.61c0.72,1.18,0.87,2.27,0.96,2.87c0.11,0.74,0.24,1.53,0.38,2.38c0.07,0.43,0.64,0.52,0.85,0.14
					c0.4-0.74,0.74-1.44,1.03-2.09c0.38-0.87,0.72-1.75,1.01-2.63c0.83-2.55-0.16-5.35-2.39-6.83c-1.94-1.3-3.66-2.25-5.06-2.95
					c-5.77-2.9-10.97-4.01-17.25-5.34C-282.38,583.85-291.82,583.54-298.29,583.69z"/>
			</g>
		</g>
		<circle class="st10" cx="-182.16" cy="451.31" r="16.12"/>
		<g>
			<path d="M-179.8,441.43c3.85,0,6.09,2.65,6.09,5.67c0,2.21-1.09,4.11-3.1,4.78l0.67,0.33c1.7,0.84,1.87,2.85,1.87,4.52v1.87
				c0,0.67,0.03,2.12,0.89,2.35v0.53h-4.64c-0.22-0.64-0.42-1.84-0.42-2.85l-0.03-2.18c-0.03-2.71-1.59-2.82-3.29-2.82h-4.3v7.85
				h-4.1v-20.05H-179.8z M-181.03,450.25c2.01,0,3.13-0.7,3.13-2.74c0-1.59-1.12-2.62-2.82-2.62h-5.33v5.36H-181.03z"/>
		</g>
	</g>
	<path class="st4" d="M206.54,585.3"/>
	<path class="st5" d="M212.13,389"/>
	<path class="st9" d="M302.55,250.81"/>
	<path class="st5" d="M264.64,555.98"/>
	<path class="st5" d="M527.63,555.98"/>
	<g>
		<path d="M173.32,317.95l1.7-12.42c0.19-1.36,0.26-2.51,0.23-3.45c-0.03-0.94-0.17-1.75-0.41-2.45c-0.24-0.69-0.62-1.34-1.13-1.94
			c-0.51-0.6-1.21-1.2-2.09-1.81c-0.88-0.6-2.01-1.22-3.39-1.84s-3.46-1.45-6.25-2.48l0.66-4.79l18.93,3.56l-5.85,42.62l-2.32-0.32
			c-0.24-2.03-0.62-3.42-1.14-4.17c-0.52-0.75-1.34-1.3-2.45-1.66c-1.11-0.36-2.83-0.7-5.17-1.02l-41.01-5.63
			c-2.18-0.3-3.78-0.44-4.8-0.42c-1.02,0.02-1.83,0.18-2.43,0.46c-0.6,0.29-1.11,0.71-1.53,1.26c-0.41,0.56-0.93,1.53-1.54,2.93
			l-2.32-0.32l2.74-19.96l2.32,0.32c0.19,1.44,0.39,2.48,0.61,3.1c0.22,0.63,0.56,1.16,1.01,1.61c0.45,0.45,1.19,0.84,2.21,1.17
			c1.02,0.33,2.66,0.66,4.94,0.97L173.32,317.95z"/>
		<path d="M175.19,273.38c2.05,0.62,3.56,1,4.55,1.15c0.99,0.15,1.8,0.14,2.45-0.01c0.65-0.15,1.25-0.49,1.8-1.01
			c0.56-0.52,1.23-1.42,2.02-2.72l2.25,0.68l-5.83,19.33l-2.25-0.68c0.08-2.04-0.08-3.47-0.48-4.29s-1.12-1.5-2.16-2.03
			c-1.04-0.53-2.69-1.14-4.95-1.82l-39.63-11.94c-2.11-0.64-3.67-1.02-4.67-1.16c-1.01-0.14-1.83-0.11-2.47,0.08
			c-0.64,0.19-1.21,0.53-1.7,1.01c-0.5,0.48-1.15,1.37-1.97,2.65l-2.25-0.68l5.83-19.33l2.24,0.68c-0.07,1.45-0.03,2.52,0.13,3.21
			c0.16,0.7,0.43,1.3,0.83,1.8c0.4,0.5,1.08,0.99,2.03,1.46c0.96,0.47,2.49,1.03,4.6,1.66L175.19,273.38z"/>
		<path d="M128.14,242.93l23.05-46.36l14.91,7.41l-2.09,4.2c-2.77-0.59-5.02-0.94-6.75-1.03c-1.73-0.1-3.14,0.01-4.23,0.33
			s-1.98,0.79-2.68,1.42c-0.7,0.63-1.45,1.73-2.23,3.3l-2.71,5.44l43.88,21.81c1.69,0.84,3.07,1.41,4.17,1.72
			c1.09,0.31,2.03,0.42,2.8,0.33s1.49-0.39,2.15-0.88c0.66-0.49,1.49-1.36,2.5-2.61l2.1,1.04l-9.73,19.58l-2.1-1.04
			c0.23-0.96,0.39-1.82,0.49-2.59c0.1-0.77,0.09-1.44-0.04-2.02c-0.12-0.58-0.37-1.13-0.75-1.66c-0.38-0.53-0.97-1.09-1.78-1.69
			c-0.81-0.6-2.07-1.32-3.78-2.17l-43.88-21.81l-2.68,5.4c-0.67,1.34-1.09,2.51-1.26,3.51c-0.18,1-0.04,2.07,0.4,3.22
			c0.45,1.15,1.26,2.4,2.46,3.76c1.19,1.36,2.8,2.88,4.81,4.56l-2.11,4.24L128.14,242.93z"/>
		<path d="M156.68,188.13l32.73-40.12l12.9,10.53l-2.96,3.63c-2.57-1.19-4.69-2.02-6.36-2.5c-1.67-0.48-3.07-0.68-4.19-0.61
			c-1.13,0.07-2.1,0.33-2.93,0.79c-0.83,0.46-1.79,1.37-2.9,2.73l-3.84,4.71l37.97,30.98c1.46,1.19,2.69,2.06,3.68,2.6
			c1,0.55,1.88,0.86,2.66,0.94c0.78,0.08,1.54-0.05,2.29-0.39c0.75-0.34,1.75-1,3.01-1.99l1.82,1.48l-13.83,16.94l-1.82-1.48
			c0.43-0.88,0.78-1.69,1.05-2.42c0.27-0.73,0.4-1.39,0.41-1.98c0.01-0.59-0.12-1.18-0.37-1.78c-0.25-0.6-0.71-1.28-1.36-2.04
			c-0.66-0.76-1.72-1.75-3.21-2.96l-37.97-30.98l-3.81,4.67c-0.95,1.16-1.62,2.21-2.01,3.15c-0.39,0.94-0.5,2.01-0.32,3.23
			c0.18,1.22,0.7,2.62,1.57,4.21c0.86,1.59,2.09,3.43,3.69,5.51l-2.99,3.67L156.68,188.13z"/>
		<path d="M247.82,178.2l9.72-7.92c1.06-0.87,1.9-1.65,2.52-2.36c0.62-0.71,1.07-1.4,1.37-2.07c0.3-0.67,0.46-1.4,0.5-2.19
			c0.04-0.79-0.06-1.71-0.3-2.75c-0.23-1.04-0.64-2.27-1.22-3.66c-0.58-1.4-1.54-3.42-2.88-6.08l3.75-3.05l11.41,15.52l-33.36,27.17
			l-1.48-1.82c1.21-1.64,1.88-2.92,2.01-3.83c0.13-0.91-0.09-1.87-0.66-2.89c-0.56-1.02-1.59-2.45-3.08-4.28l-26.14-32.09
			c-1.39-1.71-2.46-2.9-3.22-3.58c-0.76-0.68-1.46-1.12-2.09-1.32c-0.64-0.2-1.3-0.24-1.98-0.12c-0.68,0.12-1.72,0.49-3.12,1.09
			l-1.48-1.82l15.62-12.72l1.48,1.82c-0.85,1.18-1.4,2.08-1.67,2.69c-0.27,0.61-0.39,1.23-0.36,1.87c0.03,0.64,0.3,1.42,0.81,2.36
			s1.5,2.3,2.95,4.08L247.82,178.2z"/>
		<path d="M281.12,85.5l6.73,12.79l-4.15,2.18c-1.15-1.16-2.23-2.14-3.23-2.95c-1-0.81-1.93-1.44-2.78-1.89
			c-0.85-0.45-1.68-0.74-2.48-0.86c-0.8-0.12-1.64-0.05-2.51,0.21c-0.87,0.26-1.86,0.68-2.96,1.26l-13.38,7.04l11.67,22.19
			l9.06-4.77c1.24-0.65,2.12-1.34,2.64-2.07c0.52-0.72,0.79-1.63,0.81-2.72c0.02-1.09-0.23-2.65-0.76-4.68l3.98-2.09l8.55,16.26
			l-3.98,2.09c-1.29-1.49-2.4-2.53-3.33-3.14c-0.93-0.61-1.83-0.92-2.68-0.94c-0.86-0.02-1.95,0.32-3.28,1.02l-9.06,4.77
			l12.85,24.44l13.17-6.93c1.38-0.73,2.44-1.44,3.18-2.13c0.73-0.69,1.26-1.49,1.58-2.4c0.32-0.9,0.47-1.95,0.46-3.13
			c-0.01-1.18-0.12-2.36-0.32-3.54c-0.2-1.17-0.53-2.87-0.97-5.08l4.19-2.21l7.01,15.29l-39.21,20.63l-1.09-2.07
			c1.51-1.37,2.42-2.49,2.72-3.35s0.28-1.85-0.07-2.96c-0.35-1.11-1.08-2.71-2.18-4.8l-19.27-36.63c-1.03-1.95-1.84-3.33-2.45-4.14
			s-1.21-1.38-1.79-1.71c-0.58-0.32-1.22-0.49-1.92-0.51c-0.69-0.01-1.79,0.14-3.28,0.45l-1.09-2.08L281.12,85.5z"/>
		<path d="M324.63,138.02l-0.47-2.3c1.36-0.67,2.32-1.24,2.88-1.71c0.55-0.47,0.95-1.01,1.19-1.61c0.24-0.6,0.33-1.42,0.28-2.45
			c-0.05-1.03-0.29-2.63-0.73-4.78l-8.27-40.56c-0.45-2.19-0.85-3.76-1.21-4.71c-0.36-0.95-0.77-1.66-1.24-2.12
			c-0.47-0.46-1.03-0.79-1.69-1c-0.66-0.21-1.77-0.36-3.32-0.47l-0.47-2.3l20.54-4.19c5.91-1.2,10.88-1.54,14.91-1.01
			c4.03,0.53,7.6,1.8,10.71,3.8c3.11,2,5.69,4.76,7.74,8.26c2.05,3.51,3.61,7.87,4.67,13.09c1.08,5.28,1.42,10.06,1.04,14.32
			c-0.38,4.26-1.46,7.99-3.21,11.18c-1.52,2.78-3.57,5.24-6.17,7.36c-2.15,1.74-4.75,3.2-7.8,4.37c-3.05,1.18-7.18,2.29-12.4,3.36
			L324.63,138.02z M338.04,130.75c1.28-0.13,3.13-0.44,5.57-0.94c2.62-0.54,4.93-1.23,6.9-2.09c1.97-0.86,3.71-1.93,5.21-3.21
			c1.5-1.28,2.75-2.9,3.75-4.84c1-1.95,1.71-4.09,2.11-6.44c0.4-2.34,0.53-4.88,0.38-7.62c-0.15-2.74-0.55-5.68-1.19-8.84
			c-1.29-6.34-3.27-11.37-5.93-15.08c-2.66-3.71-5.85-6.16-9.56-7.35c-3.71-1.2-7.88-1.32-12.51-0.38
			c-2.13,0.43-4.13,0.91-6.01,1.42L338.04,130.75z"/>
		<path d="M426.21,106.29c-0.1,3.48-0.51,6.46-1.22,8.96c-0.68,2.37-1.65,4.47-2.92,6.28c-1.17,1.62-2.59,2.99-4.29,4.11
			s-3.73,1.97-6.11,2.57c-2.38,0.6-5.16,0.85-8.35,0.76c-3.86-0.11-7.15-0.64-9.89-1.59c-2.73-0.94-4.97-2.42-6.71-4.44
			s-2.97-4.36-3.69-7.05c-0.72-2.69-1.02-6.09-0.89-10.2l0.94-31.47c0.07-2.49,0.04-4.17-0.09-5.05c-0.13-0.88-0.34-1.58-0.63-2.1
			c-0.29-0.52-0.71-0.97-1.28-1.35c-0.56-0.38-1.62-0.81-3.17-1.27l0.07-2.34l20.09,0.6L398,65.05c-1.8,0.39-3.06,0.86-3.78,1.4
			c-0.72,0.54-1.22,1.36-1.51,2.47c-0.29,1.11-0.47,2.97-0.55,5.58l-1.01,33.86c-0.09,3.09,0.16,5.7,0.75,7.83
			c0.59,2.12,1.46,3.79,2.6,4.98c1.14,1.2,2.52,2.09,4.13,2.66s3.63,0.9,6.05,0.97c2.23,0.07,4.2-0.27,5.92-1
			c1.71-0.73,3.16-1.88,4.34-3.44c1.18-1.56,2.01-3.5,2.5-5.81c0.48-2.31,0.78-5.43,0.9-9.36l0.89-29.89c0.08-2.77,0-4.67-0.24-5.7
			c-0.24-1.03-0.66-1.82-1.27-2.38c-0.61-0.56-1.87-1.12-3.8-1.69l0.07-2.34l19.08,0.57l-0.07,2.34c-1.86,0.42-3.15,0.91-3.85,1.47
			s-1.2,1.37-1.48,2.45c-0.29,1.08-0.47,2.92-0.55,5.54L426.21,106.29z"/>
		<path d="M443.75,65.41l50.18,12.75l-4.1,16.14l-4.54-1.16c0-2.83-0.14-5.1-0.41-6.82c-0.27-1.71-0.68-3.07-1.21-4.06
			c-0.54-0.99-1.19-1.77-1.95-2.32c-0.76-0.56-2-1.05-3.7-1.48l-5.89-1.5l-12.07,47.49c-0.46,1.82-0.73,3.3-0.81,4.44
			c-0.07,1.13,0.02,2.07,0.27,2.81c0.26,0.74,0.69,1.38,1.32,1.91c0.62,0.54,1.64,1.17,3.07,1.89l-0.58,2.27l-21.19-5.39l0.58-2.27
			c0.98,0.02,1.86,0,2.63-0.07c0.77-0.07,1.43-0.22,1.97-0.46c0.54-0.24,1.03-0.6,1.46-1.09c0.43-0.48,0.86-1.18,1.27-2.1
			c0.41-0.92,0.86-2.3,1.33-4.16l12.07-47.49l-5.84-1.49c-1.45-0.37-2.69-0.53-3.7-0.5c-1.01,0.04-2.04,0.4-3.06,1.07
			c-1.03,0.68-2.08,1.74-3.16,3.2c-1.08,1.45-2.22,3.34-3.44,5.67l-4.59-1.17L443.75,65.41z"/>
		<path d="M542.48,102.46l-5.77,11.93l-4.27-2.06c0.52-2.83,0.6-5.24,0.25-7.24c-0.35-1.99-1.07-3.65-2.17-4.96
			c-1.1-1.31-2.64-2.45-4.63-3.4c-2.96-1.43-6.07-1.72-9.33-0.87c-3.26,0.85-6.51,2.93-9.74,6.24c-3.23,3.31-6.2,7.77-8.9,13.37
			c-2.72,5.63-4.5,10.7-5.33,15.2c-0.83,4.51-0.67,8.28,0.47,11.34c1.15,3.05,3.27,5.33,6.37,6.83c2.36,1.14,4.44,1.73,6.26,1.78
			s3.59-0.42,5.32-1.39s3.74-2.66,6.03-5.06l4.27,2.06l-5.95,12.32c-3.05-0.59-6.07-1.38-9.08-2.39s-6.2-2.33-9.59-3.97
			c-7.3-3.53-11.62-8.66-12.96-15.4c-1.35-6.74,0.35-15.01,5.08-24.81c2.97-6.15,6.54-11.06,10.71-14.75
			c4.17-3.69,8.75-5.89,13.74-6.6c4.98-0.71,10.09,0.2,15.32,2.72c2.61,1.26,4.96,2.56,7.04,3.91S540,100.34,542.48,102.46z"/>
		<path d="M561.69,181.69c-1.16,1.44-1.99,2.55-2.5,3.33s-0.85,1.46-1.02,2.03c-0.18,0.57-0.25,1.1-0.22,1.57
			c0.03,0.47,0.18,1.01,0.46,1.6c0.28,0.59,0.8,1.41,1.57,2.43l-1.47,1.83l-15.62-12.57l1.47-1.83c1.65,0.75,2.91,1.14,3.8,1.15
			s1.79-0.32,2.7-1.02c0.91-0.7,2.2-2.08,3.86-4.14l12.57-15.62l-20.72-16.68l-12.57,15.62c-1.34,1.67-2.26,2.93-2.77,3.79
			c-0.51,0.86-0.81,1.62-0.91,2.28c-0.1,0.66-0.01,1.34,0.25,2.05s0.86,1.67,1.76,2.89l-1.47,1.83l-15.69-12.63l1.47-1.83
			c1.86,0.84,3.25,1.23,4.16,1.17s1.81-0.48,2.69-1.24c0.88-0.76,2.06-2.07,3.54-3.91l25.96-32.24c1.38-1.71,2.32-3.01,2.83-3.9
			c0.5-0.88,0.79-1.66,0.85-2.32c0.06-0.66-0.03-1.32-0.3-1.96c-0.26-0.64-0.84-1.58-1.72-2.83l1.47-1.83l15.69,12.63l-1.47,1.83
			c-1.31-0.61-2.32-0.97-3.03-1.09c-0.71-0.12-1.37-0.09-1.98,0.09c-0.62,0.18-1.32,0.62-2.12,1.33s-1.88,1.92-3.27,3.64
			l-10.62,13.2l20.72,16.68l10.62-13.2c1.74-2.16,2.82-3.73,3.25-4.69c0.43-0.96,0.56-1.86,0.41-2.68c-0.16-0.82-0.81-2.02-1.96-3.6
			l1.47-1.83l15.62,12.57l-1.47,1.83c-1.67-0.77-2.96-1.16-3.85-1.17s-1.79,0.35-2.69,1.06c-0.9,0.71-2.17,2.08-3.81,4.12
			L561.69,181.69z"/>
		<path d="M567.6,205.06l1.95-1.31c1.53,1.36,2.74,2.14,3.63,2.35c0.89,0.21,1.87,0.08,2.94-0.39s2.58-1.36,4.54-2.68l34.34-23.11
			c1.83-1.23,3.11-2.19,3.86-2.88c0.74-0.69,1.25-1.35,1.5-1.96c0.26-0.62,0.36-1.27,0.3-1.96c-0.06-0.69-0.33-1.76-0.8-3.21
			l1.95-1.31l14.62,21.71c2.83,4.21,4.66,7.89,5.48,11.05c0.82,3.16,0.77,5.95-0.16,8.38c-0.92,2.43-2.77,4.58-5.55,6.45
			c-2.3,1.55-4.6,2.45-6.89,2.71c-2.29,0.25-4.47,0.04-6.55-0.64c-2.07-0.68-4.34-1.83-6.81-3.43l-0.36,0.24
			c1.34,4.33,1.5,8.18,0.48,11.56c-1.02,3.38-3.08,6.11-6.21,8.22c-3.6,2.42-7.08,3.6-10.43,3.53c-3.35-0.07-6.51-1.2-9.47-3.4
			c-2.96-2.2-5.82-5.35-8.58-9.45L567.6,205.06z M579.5,214.59c1.12,2.06,2.47,4.28,4.08,6.66c2.33,3.47,4.58,5.87,6.75,7.2
			c2.17,1.33,4.39,1.85,6.68,1.56c2.29-0.29,4.71-1.3,7.28-3.03c2.57-1.73,4.37-3.62,5.4-5.68c1.04-2.06,1.3-4.35,0.81-6.86
			c-0.5-2.51-1.91-5.49-4.22-8.93l-4.14-6.15L579.5,214.59z M610.29,203.95c2.71,4.02,5.75,6.44,9.13,7.27
			c3.38,0.82,6.92-0.01,10.63-2.51c1.83-1.23,3.14-2.55,3.94-3.95c0.8-1.41,1.21-2.87,1.22-4.4c0.01-1.53-0.31-3.11-0.97-4.74
			c-0.66-1.63-1.55-3.28-2.67-4.95c-0.68-1.01-1.59-2.31-2.75-3.92c-1.16-1.61-2.04-2.8-2.64-3.58l-20.56,13.84L610.29,203.95z"/>
		<path d="M603.07,269.69c-1.31-3.6-1.91-7.09-1.8-10.47c0.11-3.38,1.03-6.59,2.76-9.61c1.73-3.02,4.34-5.82,7.81-8.4
			c3.48-2.57,7.93-4.85,13.35-6.82c6.68-2.43,12.8-3.51,18.33-3.21c5.54,0.29,10.25,1.88,14.13,4.76c3.88,2.88,6.74,6.82,8.56,11.83
			c1.94,5.33,2.4,10.25,1.38,14.75c-1.03,4.5-3.49,8.5-7.39,12.01c-3.9,3.51-9.13,6.46-15.7,8.85c-7.01,2.55-13.32,3.66-18.91,3.32
			c-5.59-0.34-10.28-1.98-14.07-4.93C607.75,278.8,604.92,274.78,603.07,269.69z M629.83,243.18c-9.2,3.35-15.71,7.24-19.53,11.67
			c-3.82,4.43-4.79,9.22-2.91,14.38c1.19,3.27,3.24,5.66,6.15,7.18c2.91,1.52,6.58,2.12,11.02,1.79c4.43-0.32,9.33-1.46,14.7-3.42
			c6.53-2.38,11.71-5.02,15.53-7.92c3.81-2.9,6.28-5.86,7.38-8.88c1.11-3.02,1.1-6.06-0.01-9.11c-0.98-2.7-2.46-4.78-4.42-6.26
			c-1.96-1.47-4.34-2.43-7.13-2.85c-2.79-0.43-5.94-0.33-9.45,0.28C637.65,240.67,633.88,241.71,629.83,243.18z"/>
		<path d="M641.53,307.11l22.74-16.13c2.75-1.95,4.7-3.41,5.87-4.39c1.16-0.98,2.06-1.93,2.69-2.84c0.62-0.91,1.05-1.93,1.26-3.05
			l2.33-0.29l2.51,20.23l-2.33,0.29c-0.72-2.93-2.18-4.26-4.4-3.99c-0.92,0.11-1.92,0.46-3.01,1.02c-1.09,0.57-2.61,1.54-4.56,2.9
			l-16.91,11.74l17.69,7.3c2.41,0.99,4.36,1.65,5.87,2c1.5,0.34,2.86,0.44,4.06,0.29c1.14-0.14,1.99-0.59,2.56-1.35
			c0.56-0.76,0.83-1.81,0.79-3.16l2.33-0.29l2.23,18l-2.33,0.29c-0.64-1.24-1.43-2.3-2.39-3.17c-0.96-0.88-2.22-1.73-3.77-2.57
			c-1.55-0.84-4.14-2.03-7.77-3.57l-24.15-10.41l-15.39,1.91c-1.8,0.22-3.25,0.5-4.33,0.83c-1.08,0.33-1.93,0.75-2.54,1.28
			c-0.61,0.53-1.06,1.18-1.35,1.95c-0.29,0.77-0.51,1.96-0.67,3.55l-2.33,0.29l-2.69-21.7l2.33-0.29c0.5,1.48,0.98,2.56,1.44,3.25
			c0.45,0.68,1.05,1.2,1.79,1.56c0.74,0.36,1.67,0.57,2.8,0.64c1.13,0.07,2.62-0.01,4.45-0.24L641.53,307.11z"/>
	</g>
	<g>
		<g id="_x3C_Radial_Repeat_x3E__12_">
			<polygon class="st3" points="130.98,405.35 144.76,391 158.93,404.87 145.23,421.51 			"/>
			<path class="st3" d="M144.63,386.37"/>
		</g>
		<g id="_x3C_Radial_Repeat_x3E__11_">
			<polygon class="st3" points="125.69,372.4 140.04,386.18 126.17,400.36 109.53,386.66 			"/>
			<path class="st3" d="M144.67,386.06"/>
		</g>
		<g id="_x3C_Radial_Repeat_x3E__10_">
			<polygon class="st3" points="158.64,367.12 144.86,381.47 130.68,367.6 144.38,350.96 			"/>
			<path class="st3" d="M144.98,386.1"/>
		</g>
		<g id="_x3C_Radial_Repeat_x3E__5_">
			<polygon class="st3" points="163.92,400.07 149.58,386.29 163.45,372.11 180.09,385.81 			"/>
			<path class="st3" d="M144.95,386.41"/>
		</g>
	</g>
	<g>
		<g id="_x3C_Radial_Repeat_x3E__9_">
			<polygon class="st3" points="635.4,405.35 649.18,391 663.36,404.87 649.66,421.51 			"/>
			<path class="st3" d="M649.06,386.37"/>
		</g>
		<g id="_x3C_Radial_Repeat_x3E__8_">
			<polygon class="st3" points="630.12,372.4 644.47,386.18 630.6,400.36 613.96,386.66 			"/>
			<path class="st3" d="M649.1,386.06"/>
		</g>
		<g id="_x3C_Radial_Repeat_x3E__7_">
			<polygon class="st3" points="663.07,367.12 649.29,381.47 635.11,367.6 648.81,350.96 			"/>
			<path class="st3" d="M649.41,386.1"/>
		</g>
		<g id="_x3C_Radial_Repeat_x3E__6_">
			<polygon class="st3" points="668.35,400.07 654,386.29 667.87,372.11 684.51,385.81 			"/>
			<path class="st3" d="M649.37,386.41"/>
		</g>
	</g>
	<path class="st8" d="M230.94,565.62"/>
	<circle class="st10" cx="629.31" cy="451.31" r="16.12"/>
	<g>
		<path d="M631.67,441.43c3.85,0,6.09,2.65,6.09,5.67c0,2.21-1.09,4.11-3.1,4.78l0.67,0.33c1.7,0.84,1.87,2.85,1.87,4.52v1.87
			c0,0.67,0.03,2.12,0.89,2.35v0.53h-4.64c-0.22-0.64-0.42-1.84-0.42-2.85l-0.03-2.18c-0.03-2.71-1.59-2.82-3.29-2.82h-4.3v7.85
			h-4.1v-20.05H631.67z M630.44,450.25c2.01,0,3.13-0.7,3.13-2.74c0-1.59-1.12-2.62-2.82-2.62h-5.33v5.36H630.44z"/>
	</g>
	<rect x="-1786.49" y="14.19" class="st2" width="54.64" height="54.64"/>
	<rect x="-1786.49" y="73.94" class="st3" width="54.64" height="54.64"/>
	<rect x="-1786.49" y="133.68" class="st1" width="54.64" height="54.64"/>
</g>
<g id="Type">
</g>
</svg>
